<svg xmlns="http://www.w3.org/2000/svg" xmlns:xlink="http://www.w3.org/1999/xlink" width="332" height="209" viewBox="0 0 332 209">
    <defs>
        <linearGradient id="c" x1="50%" x2="50%" y1="0%" y2="100%">
            <stop offset="0%" stop-color="#5F6BE3"/>
            <stop offset="100%" stop-color="#73BDEB"/>
        </linearGradient>
        <rect id="a" width="330" height="200" rx="8"/>
        <filter id="b" width="103.3%" height="109%" x="-1.7%" y="-2.2%" filterUnits="objectBoundingBox">
            <feMorphology in="SourceAlpha" radius="6.5" result="shadowSpreadOuter1"/>
            <feOffset dy="8" in="shadowSpreadOuter1" result="shadowOffsetOuter1"/>
            <feGaussianBlur in="shadowOffsetOuter1" result="shadowBlurOuter1" stdDeviation="7"/>
            <feColorMatrix in="shadowBlurOuter1" values="0 0 0 0 0 0 0 0 0 0 0 0 0 0 0 0 0 0 0.5 0"/>
        </filter>
        <linearGradient id="e" x1="49.997%" x2="49.997%" y1="99.999%" y2=".008%">
            <stop offset="0%" stop-color="gray" stop-opacity=".25"/>
            <stop offset="54%" stop-color="gray" stop-opacity=".12"/>
            <stop offset="100%" stop-color="gray" stop-opacity=".1"/>
        </linearGradient>
        <linearGradient id="f" x1="49.978%" x2="49.978%" y1="99.992%" y2="-.014%">
            <stop offset="0%" stop-color="gray" stop-opacity=".25"/>
            <stop offset="54%" stop-color="gray" stop-opacity=".12"/>
            <stop offset="100%" stop-color="gray" stop-opacity=".1"/>
        </linearGradient>
    </defs>
    <g fill="none" fill-rule="evenodd" transform="translate(1)">
        <mask id="d" fill="#fff">
            <use xlink:href="#a"/>
        </mask>
        <use fill="#000" filter="url(#b)" xlink:href="#a"/>
        <use fill="url(#c)" xlink:href="#a"/>
        <g mask="url(#d)">
            <g transform="translate(66 5)">
                <path fill="#6C63FF" fill-rule="nonzero" d="M17.466 79.333H40v31.569H19.114c-.053.326-.107.65-.167.977H40v25.454c-.036 0-.071-.027-.104-.04a47.088 47.088 0 0 1-1.777-.77c-.126-.06-.25-.12-.38-.178a44.667 44.667 0 0 1-1.776-.913 37.112 37.112 0 0 1-9.475-7.435c-.077-.075-.149-.157-.222-.228-.36-.402-.713-.808-1.055-1.223-.128-.153-.253-.308-.38-.457a37.7 37.7 0 0 1-1.172-1.558c-.057-.08-.11-.158-.166-.229a33.997 33.997 0 0 1-3.82-7.097l-.088-.228a30.658 30.658 0 0 1-.824-2.435 18.789 18.789 0 0 1-.287-1.043c-.03-.103-.055-.208-.082-.31C17.144 108.134 17 102.88 17 97.652v-1.826c.018-2.134.042-4.267.073-6.397l.034-1.65a223.008 223.008 0 0 1 .217-6.038c.04-.808.088-1.61.142-2.408zM40 42.333H28a96.381 96.381 0 0 1 6.383-9.267A116.831 116.831 0 0 1 40 26.333v16zM40 44.333v33H17c0-.095.014-.192.023-.288a90.159 90.159 0 0 1 .145-1.687c.03-.3.06-.663.096-.992.036-.329.066-.662.102-.99.036-.33.073-.659.114-.985.04-.327.077-.658.123-.985.034-.27.068-.542.106-.814.053-.384.107-.767.164-1.148 0-.059.018-.116.027-.172.416-2.79.98-5.555 1.692-8.284a61.24 61.24 0 0 1 2.853-8.393 62.978 62.978 0 0 1 4.293-8.262H40zM47 78.575v32.003h49.617V78.575H47zm0 32.993v27.484c.284.058.563.116.845.165.377.074.757.14 1.144.199l.23.032c.15.026.304.046.457.065.382.055.764.097 1.144.134.179.019.364.032.545.049l.442.032c.24.019.478.032.716.042.147 0 .293.011.442.016.149.004.23 0 .348 0h1.273c.197 0 .394 0 .588-.019h.012c.137 0 .272 0 .41-.016a.992.992 0 0 0 .116 0c.115 0 .229 0 .339-.014a.473.473 0 0 1 .078 0c.254-.016.51-.037.769-.06.258-.023.503-.05.762-.079l.52-.064c2.123-.3 4.223-.752 6.283-1.351 4.63-1.305 9.156-3.13 13.785-4.465 5.979-1.724 12.59-2.573 18.367-.475v-21.675H47zm49.617-68.625V.337a63.115 63.115 0 0 0-16.12 1.909C67.934 5.436 56.652 12.356 47 21.193V42.94h2.497v.988H47v33.657h49.617V43.928H59.713v-.99l36.904.005zm63.745-14.393c-3.108-.11-6.198-1.103-8.995-2.642-5.343-2.935-9.614-7.475-14.385-11.301-9.911-7.975-22.204-12.79-34.814-13.983v42.319h70.825l.177-.188-12.808-14.205zm6.453-1.156l6.842 7.59v-9.587c-2.303.294-4.308.976-6.842 1.987v.01zm6.842 118.483v-34.309h-14.59a8.564 8.564 0 0 0-.124-.442c.044.148.083.296.122.442h-56.897v24.81c.54.405 1.074.833 1.602 1.263.571.472 1.138.95 1.701 1.432l.568.475c.272.23.55.462.824.682a126.332 126.332 0 0 0 2.506 1.987 114.816 114.816 0 0 0 14.11 9.326 116.46 116.46 0 0 0 9.028 4.57 125.027 125.027 0 0 0 33.42 9.836c2.56.381 5.133.682 7.716.903v-20.98h.23l-.216.005zM102.168 43.928v33.657h71.49V43.928h-71.49zm0 34.643v32.007h71.49V78.575l-71.49-.004zm77.038-53.22v10.711l8.73-9.686a90.67 90.67 0 0 0-8.73-1.025zm0 53.224v32.003h69.53V78.575h-69.53zm69.285 69.84l.244-36.847h-69.53v55.656c4.48.188 8.965.133 13.437-.164h.078c2.137-.14 4.263-.336 6.38-.593h.048a116.331 116.331 0 0 0 32.786-8.851l16.557-9.2zm13.658-64.583c-.264-.617-.535-1.234-.812-1.851a84.269 84.269 0 0 0-1.626-3.403h-5.425v32H268c-.011-9.064-2.282-18.318-5.85-26.746zm-7.863 27.736v31.695c3.862-3.74 7.128-8.023 9.477-12.919 2.827-5.897 4.12-12.277 4.228-18.778l-13.705.002zm0-42.318v8.328h4.917a90.705 90.705 0 0 0-4.917-8.328zm-47.154-37.618a98.138 98.138 0 0 0-12.832-3.984l-13.364 14.82-.26.285.171.187h47.562a101.243 101.243 0 0 0-21.277-11.308zm22.673 12.296h-49.624l-.975.9v32.757h69.53v-15.87a99.42 99.42 0 0 0-18.93-17.787z" opacity=".1"/>
                <path fill="#6C63FF" fill-rule="nonzero" d="M40 61.333v16H17c0-.093.014-.188.023-.282a86.351 86.351 0 0 1 .145-1.65c.03-.294.06-.649.096-.97.036-.323.066-.649.102-.97.036-.322.073-.644.114-.964.04-.32.077-.643.123-.963.034-.264.068-.53.106-.797.053-.375.107-.75.164-1.123 0-.058.018-.113.027-.169.416-2.729.98-5.435 1.692-8.105L40 61.333zM17.466 79.333H40v31.569H19.114c-.053.326-.107.65-.167.977H40v25.454c-.036 0-.071-.027-.104-.04a47.088 47.088 0 0 1-1.777-.77c-.126-.06-.25-.12-.38-.178a44.667 44.667 0 0 1-1.776-.913 37.112 37.112 0 0 1-9.475-7.435c-.077-.075-.149-.157-.222-.228-.36-.402-.713-.808-1.055-1.223-.128-.153-.253-.308-.38-.457a37.7 37.7 0 0 1-1.172-1.558c-.057-.08-.11-.158-.166-.229a33.997 33.997 0 0 1-3.82-7.097l-.088-.228a30.658 30.658 0 0 1-.824-2.435 18.789 18.789 0 0 1-.287-1.043c-.03-.103-.055-.208-.082-.31C17.144 108.134 17 102.88 17 97.652v-1.826c.018-2.134.042-4.267.073-6.397l.034-1.65a223.008 223.008 0 0 1 .217-6.038c.04-.808.088-1.61.142-2.408zM64 48.945v28.388H47V48.945h2.424v-9.612h9.949v9.612zM47 78.333h17v33H47zM47 112.333h17v26.4a42.912 42.912 0 0 1-6.116 1.339c-.17.025-.336.046-.506.064-.25.03-.497.057-.744.08l-.746.062h-.076l-.33.019h-.113c-.134 0-.266.016-.4.018h-.01c-.192 0-.381.014-.573.018h-1.577c-.145 0-.288 0-.433-.018a18.34 18.34 0 0 1-.695-.041l-.43-.032a19.945 19.945 0 0 1-.532-.051 20.509 20.509 0 0 1-1.114-.13l-.446-.065-.223-.032a26.94 26.94 0 0 1-1.114-.195c-.276-.05-.548-.108-.822-.168v-27.268zM159 44.333h14v33h-14zM173 78.333v33h-72V97.1h38.35v8.397h19.142V78.333zM173 146.63c-.076 0-.152 0-.23-.013v20.716c-2.59-.211-5.172-.507-7.744-.888a127.346 127.346 0 0 1-33.567-9.702 123.002 123.002 0 0 1-9.064-4.517 115.885 115.885 0 0 1-17.504-11.835c-.761-.625-1.515-1.264-2.282-1.883a46.617 46.617 0 0 0-1.609-1.25v-24.489h57.122c-.041-.146-.078-.29-.12-.436.044.146.086.29.122.436h14.648v33.845c.076.003.152.01.228.016zM210 44.333h-9v-3.267h4.032v-9.733c.35.15.698.305 1.045.462v9.271h3.92l.003 3.267zM233.998 77.333h-46.39.013H179v-31.61h2.438v23.364h11.14V55.251h9.207V44.333h9.449v10.924h9.202v13.837H234l-.002 8.239zM179 77.333v32.45h55v-32.45h-55zm69.922 70.646l.078-25.687h-15v-11.495h-55v56.425c4.509.191 9.025.136 13.528-.166h.078c2.15-.14 4.292-.341 6.423-.6h.048a116.462 116.462 0 0 0 33.008-8.976l16.837-9.5zM254.982 112.333H268c-.112 6.356-1.431 12.599-4.319 18.364-2.4 4.79-5.736 8.978-9.681 12.636v-19.91h.982v-11.09zM268 110.333h-12v-27h6.494c3.358 8.508 5.495 17.85 5.506 27z" opacity=".1"/>
                <path fill="#6C63FF" fill-rule="nonzero" d="M165 55.333h8v9h-8zM165 75.333h8v2h-8zM165 79.333h8v6h-8zM165 96.333h8v9h-8zM165 118.333h8v9h-8zM172.74 145.24c.086 0 .172 0 .26.015-.086 0-.171 0-.26-.013v2.091H164v-9h8.74v6.907zM173 159.333v8c-2.677-.22-5.344-.527-8-.922v-7.078h8zM101 110.333h33v2h-33z" opacity=".1"/>
                <path fill="#6C63FF" fill-rule="nonzero" d="M101 110.333h33v3h-33zM101 124.333h33v5h-33zM134 138.333v5h-25.482c-1.11-.947-2.202-1.92-3.279-2.917-.748-.69-1.488-1.398-2.239-2.083h31zM135 152.333v5h-2.787a121.33 121.33 0 0 1-9.213-4.99l12-.01zM193 82.333h6v6h-6zM52 52.333h6v6h-6zM52 66.333h6v6h-6zM52 82.333h6v6h-6zM52 97.333h6v6h-6zM52 112.333h6v6h-6zM52 127.333h6v6h-6zM218 82.333h6v6h-6zM193 97.333h6v6h-6zM218 97.333h6v6h-6zM193 115.333h6v6h-6zM218 115.333h6v6h-6zM193 131.333h6v6h-6zM218 131.333h6v6h-6zM193 146.333h6v6h-6zM218 146.333h6v6h-6zM193 167.333v-5h6v4.289zM17 67.333v5h23v-5H17zm2.29 4.687H17.4v-4.37h1.89v4.37zm2.29 0h-1.89v-4.37h1.89v4.37zm2.285 0h-1.89v-4.37h1.89v4.37zm2.29 0h-1.89v-4.37h1.89v4.37zm2.288 0h-1.89v-4.37h1.89v4.37zm2.29 0h-1.89v-4.37h1.89v4.37zm2.29 0h-1.89v-4.37h1.89v4.37zm2.288 0h-1.89v-4.37h1.89v4.37zm2.288 0h-1.89v-4.37h1.89v4.37zm2.29 0h-1.89v-4.37h1.89v4.37zM17 80.333v5h23v-5H17zm2.29 4.687H17.4v-4.37h1.89v4.37zm2.29 0h-1.89v-4.37h1.89v4.37zm2.285 0h-1.89v-4.37h1.89v4.37zm2.29 0h-1.89v-4.37h1.89v4.37zm2.288 0h-1.89v-4.37h1.89v4.37zm2.29 0h-1.89v-4.37h1.89v4.37zm2.29 0h-1.89v-4.37h1.89v4.37zm2.288 0h-1.89v-4.37h1.89v4.37zm2.288 0h-1.89v-4.37h1.89v4.37zm2.29 0h-1.89v-4.37h1.89v4.37zM17 91.333v5h23v-5H17zm2.29 4.684H17.4v-4.373h1.89v4.373zm2.29 0h-1.89v-4.373h1.89v4.373zm2.285 0h-1.89v-4.373h1.89v4.373zm2.29 0h-1.89v-4.373h1.89v4.373zm2.288 0h-1.89v-4.373h1.89v4.373zm2.29 0h-1.89v-4.373h1.89v4.373zm2.29 0h-1.89v-4.373h1.89v4.373zm2.288 0h-1.89v-4.373h1.89v4.373zm2.288 0h-1.89v-4.373h1.89v4.373zm2.29 0h-1.89v-4.373h1.89v4.373zM17 102.333v5h23v-5H17zm2.29 4.687H17.4v-4.38h1.89v4.38zm2.29 0h-1.89v-4.38h1.89v4.38zm2.285 0h-1.89v-4.38h1.89v4.38zm2.29 0h-1.89v-4.38h1.89v4.38zm2.288 0h-1.89v-4.38h1.89v4.38zm2.29 0h-1.89v-4.38h1.89v4.38zm2.29 0h-1.89v-4.38h1.89v4.38zm2.288 0h-1.89v-4.38h1.89v4.38zm2.288 0h-1.89v-4.38h1.89v4.38zm2.29 0h-1.89v-4.38h1.89v4.38zM17 113.333c.09.474.197.942.306 1.407v-1.09h1.9v4.375h-1.02c.03.105.06.213.093.308H40v-5H17zm4.51 4.692h-1.899v-4.375h1.9v4.375zm2.296 0h-1.9v-4.375h1.9v4.375zm2.3 0h-1.9v-4.375h1.9v4.375zm2.298 0h-1.9v-4.375h1.9v4.375zm2.3 0h-1.899v-4.375h1.9v4.375zm2.3 0h-1.899v-4.375h1.9v4.375zm2.298 0h-1.899v-4.375h1.9v4.375zm2.298 0h-1.899v-4.375h1.9v4.375zm2.3 0h-1.899v-4.375h1.9v4.375zM23 124.333c.06.098.114.209.172.307h1.21v2.095l.391.614v-2.721h1.831v4.399h-.753c.073.1.144.208.23.306H40v-5H23zm5.826 4.694h-1.83v-4.38h1.83v4.38zm2.217 0h-1.83v-4.38h1.83v4.38zm2.218 0h-1.83v-4.38h1.83v4.38zm2.215 0h-1.83v-4.38h1.83v4.38zm2.215 0h-1.83v-4.38h1.83v4.38zm2.217 0h-1.83v-4.38h1.83v4.38zM36 135.333c.22.106.442.204.663.307v-.101h1.91v.916c.138.051.27.106.406.159v-1.075h1.909v1.76a.87.87 0 0 0 .112.034v-2h-5zM172.768 146.335h.23-.23zm-14.784-35.105c.043.15.083.3.122.447a6.814 6.814 0 0 0-.122-.447zM48 42.338v.996h10.275v-1L48 42.337zm124.77 103.997h.23-.23zm-14.786-35.105c.043.15.083.3.122.447a6.814 6.814 0 0 0-.122-.447zm14.784 35.105h.23-.23zm-14.784-35.105c.043.15.083.3.122.447a6.814 6.814 0 0 0-.122-.447z" opacity=".1"/>
                <ellipse cx="201.5" cy="196.333" fill="#6C63FF" fill-rule="nonzero" opacity=".1" rx="22.5" ry="4"/>
                <ellipse cx="100.5" cy="193.333" fill="#6C63FF" fill-rule="nonzero" opacity=".1" rx="22.5" ry="4"/>
                <path fill="url(#e)" fill-rule="nonzero" d="M127.878 96.42a.123.123 0 0 0-.035-.06c-.351-.341-4.821-6.574-4.821-6.574s-.235-.696-.617-1.6c.123-.156.214-.333.271-.522.02-.08.036-.162.045-.244 0-.025.019-.046.026-.072a1.737 1.737 0 0 0-.024-.955c-.026.08-.058.157-.096.231a3.852 3.852 0 0 0-.353-.774c-.593-1.007-1.44-1.856-2.064-2.837a7.586 7.586 0 0 1-1.06-5.094v.274c.023-.35.07-.7.14-1.044.099-.392.23-.775.393-1.146.56-1.264 1.466-2.366 2.017-3.634.184-.428.325-.874.418-1.33a7.345 7.345 0 0 0 .21-2.33c0 .185-.03.37-.059.554a7.498 7.498 0 0 0-2.162-5.027c-1.922-1.904-4.682-2.644-7.322-3.034a6.765 6.765 0 0 1-3.082-1.16c-1.014-.647-2.324-.802-3.51-.66a5.821 5.821 0 0 0-3.574 1.742c-1.254 1.359-1.797 3.284-3.26 4.43-.887.696-2.012 1.02-3.045 1.494-1.033.473-2.009 1.16-2.34 2.175v-.02.057l-.015.038c-.343 1.201.32 2.423.666 3.623.36 1.24.384 2.551.402 3.834.026 1.568.05 3.138.024 4.709a32.53 32.53 0 0 1-.08 1.855 9.945 9.945 0 0 0-1.616.64c-.527.339-2.499 2.438-2.499 2.438L87 100.922l.052.058-.052.197.195-.044c.546.58 2.177 2.232 3.936 3.261l.165 2.849s.198 2.857 2.863 4.038c.061.99.252 5.013-.63 6.606a7.336 7.336 0 0 0-.833 3.776s.308 2.417-.043 3.688a5.948 5.948 0 0 0-.044 2.589v.763c0 2.572.03 10.816 0 11.749-.045 1.101 0 17.396 0 17.396s-.219 8.144-.92 10.35c-.701 2.206-.525 9.51-.525 9.51s-.44 8.7 1.115 10.417c0 .076-.014.155-.016.232v.109c-.019.661.11 1.364.687 1.58 1.176.445 2.731 1.78 3.025 2.164.295.382 2.005 1.336 4.235 1.08a32.33 32.33 0 0 1 4.21-.19s.88-.157.594-1.236c-.183-.673-.87-1.707-1.36-2.387.09.023.177.042.26.058l.084.016h.066a.907.907 0 0 0 .108 0h.047a.819.819 0 0 0 .132 0c.59-.055 2.793.956 3.186 1.624.392.668 1.778 1.176 2.823 1.304.62.074 2.188-.051 3.503-.218a13.066 13.066 0 0 0 1.962-.353c.31-.116.376-.487.287-.905a2.348 2.348 0 0 0-.814-1.354c-.381-.267-.885-.97-1.256-1.545l-.1-.155c.657-.617 1.843-2.635 2.203-3.053.438-.508-.706-19.085-.706-19.085v-9.313l1.753-8.814 1.226-4.665 1.051-7.042s1.84-8.225 1.273-9.032c0-.016-.47-8.485-.964-10.52-.215-.906-.16-2.947-.033-4.933a.964.964 0 0 0 .235-1.016 2.093 2.093 0 0 0-.137-.345v-.107a16.36 16.36 0 0 1 3.17-1.062c1.752-.34 1.315-1.23 1.315-1.23s.395-.763.656-1.23c.261-.465.045-4.58 0-4.919-.016-.137-.125-.893-.25-1.751a29.797 29.797 0 0 1 2.092-1.348c1.518-.886 1.176-1.82 1.052-2.064zm-22.868 58.807s-1.315 3.308-.788 4.154c.527.847-.087 3.99-.087 3.99l-.44 4.664s-1.226 8.652-.789 10.687c.344 1.595.471 6.362.511 8.35a.599.599 0 0 0-.087.042l-.059.03c.202-.782.118-2.364-.887-5.546l-.085-13.145s-.155-15.184 1.062-16.882c1.216-1.697 1.646-4.58 1.646-4.58s-.263 4.158-.435 5.26c-.172 1.102.438 2.976.438 2.976zm-2.45 32.674c-.011.029-.025.057-.035.083l-.066-.085a.688.688 0 0 0 .102.002z"/>
                <path fill="#FFF" fill-rule="nonzero" d="M114.718 193.813c-.602.225-3.864.61-4.775.502-.912-.108-2.12-.559-2.463-1.148-.343-.59-2.268-1.479-2.785-1.422a1.916 1.916 0 0 1-.624-.085 7.804 7.804 0 0 1-1.04-.39 1.84 1.84 0 0 1 .068-.923c.121-.333.373-.606.7-.76l.074-.034c.145-.06.295-.106.45-.134 1.636-.307 8.386.309 8.386.309s.19.33.45.741c.324.508.766 1.128 1.099 1.361.369.308.619.73.71 1.195.079.36.02.688-.25.788z"/>
                <path fill="#000" fill-rule="nonzero" d="M114.715 193.746c-.602.255-3.861.688-4.773.566-.912-.121-2.119-.632-2.464-1.295-.346-.662-2.267-1.669-2.783-1.605-.516.065-1.665-.536-1.665-.536s-.18-.917.341-1.543l1.04.814s2.786.951 3.302 1.834c.516.883 1.457 1.375 2.816 1.465 1.016.073 3.35-.362 4.442-.58.073.396.017.768-.256.88z" opacity=".1"/>
                <path fill="#FFF" fill-rule="nonzero" d="M103.395 193.114a30.714 30.714 0 0 0-3.94.18c-2.096.237-3.696-.648-3.975-1.013-.28-.364-1.723-1.596-2.832-2.028-.542-.203-.67-.863-.645-1.48v-.102c.02-.39.08-.779.178-1.159l8.683-.179.752.986.116.152.458.602s.208.263.48.647c.46.647 1.102 1.603 1.274 2.236.274 1.012-.549 1.158-.549 1.158z"/>
                <path fill="#000" fill-rule="nonzero" d="M103.386 195.093a27.97 27.97 0 0 0-3.938.197c-2.091.26-3.692-.71-3.969-1.111-.276-.4-1.723-1.764-2.832-2.221-.542-.223-.669-.947-.644-1.625.62.154 1.922.547 2.433 1.232.669.914 1.866 2.45 3.567 2.548 1.374.078 4.719-.183 5.945-.287.263 1.106-.562 1.267-.562 1.267zM103 188.523c-.107.73-.436.926-.672.97a.495.495 0 0 1-.175 0 .628.628 0 0 1-.093-.014s-8.27 1.686-9.942.321a1.112 1.112 0 0 1-.118-.113c.022-.396.085-.788.19-1.172l9.21-.182.798.998a1.49 1.49 0 0 1 .795-.816l.007.008zM112 188.98c-.157.25-.288.393-.371.344-.37-.216-3.411-.966-4.377-.321-.966.644-4.234.105-4.234.105s0-.56-.018-1.46c.14-.086.286-.151.435-.192 1.585-.44 8.123.444 8.123.444s.192.49.442 1.08z" opacity=".1"/>
                <path fill="#6C63FF" fill-rule="nonzero" d="M118.703 137.27l-.991 7.072-1.153 4.688-1.65 8.86v9.38s1.072 18.662.659 19.171c-.413.51-1.98 3.411-2.392 3.242-.413-.169-3.794-.766-4.868-.257-1.075.51-4.71.086-4.71.086s-.082-7.242-.495-9.287c-.412-2.045.742-10.736.742-10.736l.413-4.685s.578-3.155.083-4.007c-.496-.852.742-4.169.742-4.169s-.576-1.878-.41-2.985c.166-1.107.41-5.283.41-5.283s-.41 2.9-1.556 4.602c-1.146 1.702-1 16.957-1 16.957l.08 13.201c2.066 6.99 0 6.306 0 6.306s-7.834 1.79-9.417.34c-1.583-1.449-1.13-10.574-1.13-10.574s-.164-7.327.496-9.541c.659-2.214.867-10.396.867-10.396s-.042-16.362 0-17.467c.032-.926 0-9.22 0-11.811v-.767l.947-2.427 11.21-1.45h5.364s8.073 1.96 8.907 2.805a.19.19 0 0 1 .045.05c.54.818-1.193 9.082-1.193 9.082z"/>
                <path fill="#000" fill-rule="nonzero" d="M104 175.333s3.235 5.595 4.761 5.983c1.526.389-4.761-5.983-4.761-5.983zM105 182.333s9.09.537 9 1.717c-.091 1.181-9-1.717-9-1.717zM95 181.333c.28.298 5.396.856 4.975 1.4-.42.543-4.554 1.6-4.554 1.6l-.421-3zM93 170.333c0 .25 1.34 8.001 1.698 8.334.36.333 3.302.666 3.302.666l-5-9z" opacity=".1"/>
                <path fill="#3F3D56" fill-rule="nonzero" d="M102.777 62.122c-1.201 1.352-1.72 3.268-3.12 4.411-.85.689-1.925 1.017-2.914 1.485-.989.468-1.968 1.182-2.262 2.243-.328 1.193.305 2.412.638 3.605.344 1.235.364 2.525.385 3.817.023 1.563.048 3.126.02 4.69-.04 2.435-.241 4.982-1.524 7.046 4.632 1.485 9.558 1.687 14.416 1.877a14.44 14.44 0 0 0 2.8-.071 23.892 23.892 0 0 0 2.386-.608c1.55-.414 3.148-.62 4.753-.613.699 0 1.412.044 2.087-.14.674-.184 1.323-.654 1.506-1.334.161-.61-.076-1.26-.385-1.808-.565-1-1.367-1.836-1.974-2.823a7.808 7.808 0 0 1-.494-6.975c.538-1.26 1.404-2.358 1.932-3.62a7.676 7.676 0 0 0-1.526-8.098c-1.84-1.895-4.478-2.63-7.002-3.02a6.332 6.332 0 0 1-2.948-1.148c-.969-.642-2.224-.798-3.359-.656a5.468 5.468 0 0 0-3.415 1.74z"/>
                <g fill="#000" fill-rule="nonzero" opacity=".1">
                    <path d="M119.066 75.42a7.982 7.982 0 0 0-.58 3.575 7.832 7.832 0 0 1 .58-2.537c.535-1.285 1.4-2.404 1.928-3.691a7.657 7.657 0 0 0 .53-3.399 7.45 7.45 0 0 1-.53 2.364c-.528 1.288-1.393 2.404-1.928 3.689zM95.493 77.228c.014.917.028 1.837.03 2.754 0-1.264-.011-2.525-.03-3.787-.018-1.308-.04-2.633-.384-3.894-.228-.8-.565-1.613-.683-2.42-.203 1.147.373 2.31.683 3.454.343 1.25.366 2.584.384 3.893zM120.418 88.628c-.683.19-1.384.147-2.083.143a17.79 17.79 0 0 0-4.746.613c-.784.247-1.58.453-2.384.618a13.99 13.99 0 0 1-2.8.075c-4.69-.19-9.445-.394-13.936-1.772a8.024 8.024 0 0 1-.455.89c4.628 1.511 9.55 1.72 14.4 1.914a13.99 13.99 0 0 0 2.8-.075 23.015 23.015 0 0 0 2.375-.616 17.79 17.79 0 0 1 4.737-.62c.699 0 1.409.044 2.083-.145.674-.19 1.322-.665 1.504-1.358.077-.32.07-.656-.022-.973-.203.655-.829 1.112-1.473 1.306z"/>
                </g>
                <path fill="#FBBEBE" fill-rule="nonzero" d="M113.986 86.07c-.173.388-.901 3.736-1.074 4.079-.173.343-1.117 5.837-1.203 6.145-.087.308-6.22-1.289-6.22-1.289l-3.693-3.093-3.795-3.775s-.112-3.407 2.683-4.5c.19-.074.386-.135.584-.181 3.392-.815 3.05-11.123 3.05-11.123l6.961 3.005s-1.29 6.014-1.245 7.174c.012.39.318.633.717.78.618.176 1.26.245 1.902.206 0 0 1.506 2.187 1.333 2.572z"/>
                <path fill="#6C63FF" fill-rule="nonzero" d="M125.005 97.796l.86.234s.637 1.002-.86 1.934a25.93 25.93 0 0 0-2.73 1.976l-4.423 1.393-.852-2.767 4.116-3.233 3.89.463z"/>
                <path fill="#000" fill-rule="nonzero" d="M125.005 97.796l.86.234s.637 1.002-.86 1.934a25.93 25.93 0 0 0-2.73 1.976l-4.423 1.393-.852-2.767 4.116-3.233 3.89.463z" opacity=".1"/>
                <path fill="#6C63FF" fill-rule="nonzero" d="M89.01 99.82L87 101.504s3.625 3.593 6.413 3.817c2.789.224 4.587-2.732 4.587-2.732l-2.413-3.256-6.577.487z"/>
                <path fill="#000" fill-rule="nonzero" d="M89.01 99.82L87 101.504s3.625 3.593 6.413 3.817c2.789.224 4.587-2.732 4.587-2.732l-2.413-3.256-6.577.487z" opacity=".1"/>
                <circle cx="107" cy="71.333" r="7" fill="#000" fill-rule="nonzero" opacity=".1"/>
                <circle cx="107" cy="71.333" r="7" fill="#FBBEBE" fill-rule="nonzero"/>
                <path fill="#000" fill-rule="nonzero" d="M120 129.939a20.12 20.12 0 0 0-4.335 1.016c-2.422.844-21.4.014-21.665 0v-.763l.93-2.416 11.008-1.443h5.266s7.926 1.95 8.745 2.792c.033.507.051.814.051.814zM113.986 86.103c-.173.386-.901 3.723-1.074 4.066-.173.342-1.117 5.818-1.203 6.125-.087.307-6.22-1.285-6.22-1.285l-3.693-3.083-3.795-3.764s-.112-3.395 2.683-4.484l6.942 7.952 3.125-8.297c.618.175 1.26.245 1.902.205 0 0 1.506 2.18 1.333 2.565z" opacity=".1"/>
                <path fill="#6C63FF" fill-rule="nonzero" d="M106.17 91.257l-6.981-8.159a2.887 2.887 0 0 0-2.77-.208c-1.563.688-3.504 1.245-4.012 1.588C91.9 84.821 90 86.942 90 86.942l5.66 15.038-2.493 9.906s.381 5.06-.59 6.904a7.68 7.68 0 0 0-.803 3.817s.296 2.445-.041 3.73a6.308 6.308 0 0 0-.044 2.615s20.056.858 22.587 0c1.465-.506 2.98-.85 4.519-1.028 0 0-.46-8.579-.918-10.637-.46-2.059.38-9.905.38-9.905l-.548-8.406L121 90.35s-1.783-5.53-3.642-6.086c0 0-3.376-.816-4.094-1.201-.719-.385-2.83-.73-2.83-.73l-1.108.378-3.156 8.546z"/>
                <path fill="#000" fill-rule="nonzero" d="M104.515 98.18l10.167.7a2.94 2.94 0 0 1 2.732 3.13l-1.273 18.915a2.94 2.94 0 0 1-3.135 2.735l-10.168-.698a2.94 2.94 0 0 1-2.731-3.13l1.273-18.915a2.94 2.94 0 0 1 3.135-2.736z" opacity=".1"/>
                <path fill="#3F3D56" fill-rule="nonzero" d="M105.02 97.672l10.168.699a2.94 2.94 0 0 1 2.732 3.13l-1.273 18.915a2.94 2.94 0 0 1-3.135 2.736l-10.168-.699a2.94 2.94 0 0 1-2.732-3.13l1.274-18.915a2.94 2.94 0 0 1 3.135-2.736z"/>
                <path fill="#FFF" fill-rule="nonzero" d="M102.99 99.402l13.97.96-1.436 21.322-13.969-.96z"/>
                <path fill="#000" fill-rule="nonzero" d="M104.296 104.997l11.411.807-.223 3.212-11.41-.807zM113.483 118.444l1.811.124-.113 1.675-1.81-.125zM104.239 113.892l9.269.636-.113 1.674-9.269-.636z" opacity=".1"/>
                <path fill="#3F3D56" fill-rule="nonzero" d="M105.58 98.901l9.65.663-.173 2.574-9.651-.663z"/>
                <path fill="#000" fill-rule="nonzero" d="M105.58 98.901l9.65.663-.173 2.574-9.651-.663zM106.975 129.333s-.074 12.07-2.975 19c0 0 3.497-9.133 3.497-9.499 0-.365 1.932-4.2 1.415-5.34-.518-1.142-1.937-4.16-1.937-4.16zM108.214 70.709a4.98 4.98 0 0 1 .773-3.267c-.154 1.99 1.136 3.795 3.03 4.242a.536.536 0 0 1-.145-.577c.475.553.84 1.208 1.378 1.694.539.486 1.346.777 1.98.431.861-.476.87-1.732.648-2.709a12.842 12.842 0 0 0-2.853-5.593 3.743 3.743 0 0 0-2.994-1.563c-1.318-.105-2.687.015-3.869.622-.664.373-1.287.82-1.856 1.332l-3.25 2.722c-.312.23-.58.52-.789.853-.14.278-.223.581-.246.893-.169 1.818.678 3.578 2.187 4.544-.032-1.44.786-2.758 2.072-3.336.2.171.317.422.323.689l.684-1.253c.102-.229.263-.424.465-.565.422-.238.949.043 1.309.379s.71.755 1.192.807l.019-1.865" opacity=".1"/>
                <path fill="#3F3D56" fill-rule="nonzero" d="M108.208 68.71a4.982 4.982 0 0 1 .773-3.27c-.209 1.907 1.192 3.876 3.035 4.243a.531.531 0 0 1-.146-.574c.476.553.84 1.206 1.38 1.694.538.489 1.346.777 1.98.43.861-.477.87-1.733.647-2.708a12.844 12.844 0 0 0-2.853-5.594 4.586 4.586 0 0 0-1.595-1.273 4.54 4.54 0 0 0-1.393-.29c-1.32-.105-2.69.011-3.871.62-.665.373-1.287.821-1.858 1.334l-3.25 2.722c-.313.23-.581.52-.79.853a2.37 2.37 0 0 0-.246.894c-.169 1.817.678 3.576 2.188 4.542-.031-1.44.787-2.758 2.073-3.336a.941.941 0 0 1 .323.688l.682-1.248c.102-.229.262-.424.465-.565.422-.239.95.043 1.31.379.36.336.71.753 1.193.808l.018-1.869"/>
                <path fill="#FBBEBE" fill-rule="nonzero" d="M112.31 112.134c-.587-.293-10.303 1.2-10.303 1.2s-1.6-.45-5.469-1.076c-3.868-.626-4.115-4.348-4.115-4.348L92 100.459l1.305-1.126 5.592 3.601s.087 1.82 0 2.15c-.054.224-.2.492-.187.674a.226.226 0 0 0 .187.203c.38.094 5.551.918 5.551.918s11.987-.808 14.975 3.166c.236.292.416.625.528.982.74 2.716-7.108 1.366-7.64 1.107z"/>
                <path fill="#000" fill-rule="nonzero" d="M120 112.027c-.47.178-.76.306-.76.306s-4.404-.11-6.879-.876c-2.474-.766-5.481-.63-5.481-.63s-10.31-1.515-8.712-3.494c.01.09.088.165.193.18.39.085 5.7.819 5.7.819s12.307-.72 15.376 2.82c.25.259.441.556.563.875z" opacity=".1"/>
                <path fill="#FBBEBE" fill-rule="nonzero" d="M122.256 97.333s.582 4.112.623 4.446c.04.334.25 4.36 0 4.818-.25.458-.623 1.203-.623 1.203s.415.872-1.245 1.206c-1.661.334-3.61 1.327-3.61 1.327s-4.236-.124-6.601-.995c-2.365-.872-5.271-.707-5.271-.707s-12.58-2.16-7.183-4.798c5.398-2.637 9.216.935 9.216.935l6.018-.372s2.243-1.373 2.866-1.247c.44.056.886-.016 1.286-.207l.043-4.362 4.481-1.247z"/>
                <path fill="#000" fill-rule="nonzero" d="M92.108 86.399l-1.267-.066L87 101.085s4.147-1.035 5.934 0c1.788 1.035 5.066 1.248 5.066 1.248l-1.222-11.76-4.67-4.174z" opacity=".1"/>
                <path fill="#6C63FF" fill-rule="nonzero" d="M92.108 86.399l-1.267-.066L87 101.085s4.147-1.035 5.934 0c1.788 1.035 5.066 1.248 5.066 1.248l-1.222-11.76-4.67-4.174z"/>
                <path fill="#000" fill-rule="nonzero" d="M119.684 90.333l1.672.337s4.27 5.473 4.605 5.78c.335.305-1.592 1.418-2.386 1.418s-4.687.406-5.818 1.342c-1.13.937-.66-3.776-.66-3.884 0-.107 1.404-3.081 1.404-3.081l1.183-1.912z" opacity=".1"/>
                <path fill="#6C63FF" fill-rule="nonzero" d="M119.684 90.333l1.672.335s4.27 5.483 4.605 5.781c.335.298-1.592 1.42-2.386 1.42s-4.687.405-5.818 1.341c-1.13.937-.66-3.776-.66-3.884 0-.107 1.413-3.091 1.413-3.091l1.174-1.902z"/>
                <g fill="#000" fill-rule="nonzero" opacity=".1">
                    <path d="M108.9 65.05a4.032 4.032 0 0 1 .012-.574 5.395 5.395 0 0 0-.704 1.887v.698c0 .405 0 .812-.011 1.217h-.032v.188c0-.065 0-.128-.012-.193-.457-.08-.784-.5-1.124-.835-.341-.335-.874-.655-1.29-.397-.199.148-.357.353-.457.592l-.679 1.31a1.004 1.004 0 0 0-.317-.72c-1.267.606-2.073 1.989-2.041 3.5-1.267-.868-2.075-2.35-2.17-3.982-.08 1.829.75 3.563 2.17 4.532-.03-1.51.775-2.893 2.04-3.5.196.18.312.443.318.723l.672-1.31c.1-.24.258-.445.458-.593.416-.25.934.045 1.289.398.354.352.7.79 1.175.847 0-.64.006-1.278.018-1.915a5.375 5.375 0 0 1 .686-1.872z"/>
                    <path d="M108.128 67.568c.011-.17.03-.34.053-.5l.025-.69a5.524 5.524 0 0 0-.078 1.19zM115.063 70.55c-.624.366-1.42.06-1.95-.45s-.889-1.197-1.358-1.777a.587.587 0 0 0 .144.605c-.045 0-.089-.025-.132-.037.457.575.82 1.25 1.346 1.75.526.5 1.326.815 1.95.45.624-.365.802-1.22.747-2.053-.04.655-.256 1.223-.747 1.513zM111.753 68.886c-1.565-.467-2.7-1.948-2.848-3.715-.13 1.962 1.223 3.93 2.994 4.307a.584.584 0 0 1-.146-.592z"/>
                </g>
                <path fill="url(#f)" fill-rule="nonzero" d="M222.382 107.118s-.913-.127-.913-1.45c0-1.322-.653-3.798-.653-3.798s-.566-4.309-1.347-4.992c-.78-.683-1.784-4.694-1.784-4.694s-.171-2.176-.521-2.645c-.35-.468-.823-1.615-1.52-3.251-.698-1.637-3.599-2.758-3.599-2.758s-5.258-3.037-6.748-4.027a2.302 2.302 0 0 1-.38-.286c-.26-.337-1.39-.344-1.39-.344-.118-.746-.232-1.6-.269-2.373v-.249a7.992 7.992 0 0 0 3.525-4.343c.028-.088.05-.178.076-.268a.752.752 0 0 0 .464-.406c.132-.298.136-.644.303-.923.195-.328.566-.503.858-.748.736-.625.926-1.675.892-2.629-.023-.775-.149-1.555-.1-2.323 0-.065 0-.13.014-.194.014-.113.03-.231.05-.342.114-.572.362-1.112.501-1.68.14-.568.153-1.207-.171-1.696-.475-.718-1.465-.861-2.333-.923-.985-.083-1.854.023-2.496-.792a8.708 8.708 0 0 0-.992-1.19c-.13-.12-1.39-.89-1.39-.938a5.654 5.654 0 0 0-3.94-.302c-.655.19-1.27.498-1.934.653-1.428.337-3.073-.028-4.287.787-.677.462-1.082 1.198-1.462 1.91-.31.589-.623 1.177-.941 1.766-.515.967-1.034 1.95-1.25 3.021-.044.234-.073.47-.085.709v.366c0 .08 0 .158.014.232.014.073 0 .094.016.143.016.048.021.157.035.23a4.1 4.1 0 0 0 .07.305c0 .044.027.085.041.13.014.043.051.154.081.23.03.076.033.08.051.12.035.08.077.16.118.23.019.03.033.06.051.09.064.109.135.212.214.31.493.616 1.225 1.009 1.765 1.586v.258a7.893 7.893 0 0 0 3.634 6.439c0 .087.011.177.016.267.045.685.037 1.371-.026 2.054a.98.98 0 0 0-.769-.341c-.1-.005-.2.003-.296.025l-.021-.016v.02c-.51.125-1.138.654-1.738 2.156 0 0-1.826 2.05-3.216 1.964-1.39-.085-4.91 2.135-4.91 2.135s-3.435 2.218-4.172 4.48a31.238 31.238 0 0 1-1.48 3.756l-4.257 8.705-.781 6.924s.433 3.072.348 3.542c-.086.471 1.782 4.694 1.782 4.694s6.17 10.796 8.691 11.35l.181-.124c.109.054.223.096.34.124l.52-.362a5.38 5.38 0 0 1-.042 1.216c-.345 1.069.132 8.024.74 9.388.606 1.364.39 19.25.39 19.25l-.085 1.576s0 .05.021.138l-.02.374.062.032c.065.502.044 1.01-.063 1.505-.218.692-.306 2.647-.306 2.647s-1.738 11.05-.913 13.27a74.162 74.162 0 0 1 1.523 4.652s.869 2.77.041 3.231c-.827.462-3.17 1.281-2.692 2.433.44 1.066 2.11 3.923 2.359 4.34l-.021.232-.34 3.676c.054.485.187.959.39 1.403.374.803 1.097 1.632 2.478 1.542.232-.017.498-.042.76-.077 2.524-.339 5.629-1.46 5.629-1.46a2.218 2.218 0 0 1-.438-.363 1.264 1.264 0 0 1-.387-.923c.037-.671-1.222-3.858-1.537-4.645l-.071-.176s2.868-2.988 2.39-5.633c0 0-3.174-1.846-2.129-2.862 1.045-1.015 2.913-3.923 2.913-3.923s.086-10.881 0-12.504a13.424 13.424 0 0 1 .16-3.378c.035-.167.076-.33.12-.494 1.447.217 2.908.328 4.37.33.535 0 1.076-.011 1.623-.033 0 .154.007.32.02.499.121 2.695.346 7.424.529 9.18.26 2.516 1.694 9.303 1.694 9.303s-2.737 1.747.477 6.06c0 0 0 1.56-.213 1.789-.228.74-.411 1.493-.55 2.255-.134.81-.19 1.634.029 2.058.521 1.02 3.65.937 3.65.937a.495.495 0 0 1 .076-.011 4.478 4.478 0 0 1 3.311.992c1.189.95 5.698.535 8.143.23.957-.122 1.596-.23 1.596-.23a.931.931 0 0 0 .033-.332c-.026-.598-.496-1.909-3.685-3.079 0 0-2.998-2.008-2.956-3.757h-.413c.218-.007.37-.007.37-.007s-1.174-4.267-.694-4.616c.48-.348-.957-5.077-.957-5.077s-.823-7.939-.87-8.492a4.86 4.86 0 0 1 .219-1.408l-.218-4.355s-.042-1.447 0-1.918a8.983 8.983 0 0 0-.098-1.22c-.02-.162-.041-.33-.064-.497 1.123-.284 1.853-.544 1.853-.544l-.13-15.151c.955-1.846 1.131-5.899 1.127-8.77 0-1.846-.084-3.212-.084-3.212l1.305-2.121s.301-2.539-.176-3.095c-.211-.251-.116-.512.058-.727.091-.074.188-.142.29-.203a.362.362 0 0 1-.03-.05c.09-.076.187-.145.289-.206 0 0-.464-.715-.049-1.018.39.263.737.473 1.001.623-.018.169-.037.266-.037.266l.111-.231.41.23s2.044-4.054 2-4.65c-.044-.595 1.39-3.115 1.39-3.115s.174-1.325.958-1.878c.783-.554.607-4.568.607-4.568s.218-2.09.739-2.942c.521-.852-.466-2.01-.466-2.01zm-39.105-1.78l.04.967c-.232-.371-.4-.636-.4-.636l.36-.33z"/>
                <path fill="#FFF" fill-rule="nonzero" d="M217 125.002l-.464 2.331s-3.718-2.242-4.386-5.08c-.669-2.838 1.12-3.92 1.12-3.92l3.466 1.728.264 4.941z"/>
                <path fill="#000" fill-rule="nonzero" d="M217 125.002l-.464 2.331s-3.718-2.242-4.386-5.08c-.669-2.838 1.12-3.92 1.12-3.92l3.466 1.728.264 4.941z" opacity=".1"/>
                <path fill="#FFF" fill-rule="nonzero" d="M195 197.943s-3.678 1.23-6.207 1.384c-1.342.082-2.048-.667-2.411-1.389a3.953 3.953 0 0 1-.382-1.255l.333-3.315.175-1.763 5.372-1.272.761 2.12.072.158c.303.71 1.53 3.583 1.494 4.183-.006.314.13.616.375.837.124.12.265.224.418.312zM219.997 196.381c.009.117-.002.233-.031.345 0 0-7.626 1.366-9.186 0-.887-.806-2.048-1.174-3.2-1.013 0 0-2.95.086-3.443-.958-.205-.439-.152-1.29-.025-2.125.13-.787.303-1.564.517-2.329l.119-.1.702-.607 8.218-.26h.062c-.04 1.806 2.788 3.878 2.788 3.878 3.01 1.198 3.454 2.551 3.479 3.17z"/>
                <path fill="#000" fill-rule="nonzero" d="M219.998 196.322c.007.123-.004.248-.034.367 0 0-7.624 1.45-9.182 0-.887-.858-2.049-1.25-3.201-1.077 0 0-2.952.091-3.445-1.018-.203-.466-.151-1.37-.024-2.26 1.136.13 2.93.452 3.634 1.226 1.065 1.171 2.87 2.342 3.974 2.436.874.061 6.067.25 8.278.326zM195 198.707s-3.841 1.438-6.482 1.62c-1.402.095-2.139-.78-2.518-1.624.98.335 2.336.684 3.049.364.845-.384 3.84-.629 5.521-.734.127.143.271.27.43.374z" opacity=".1"/>
                <path fill="#CF6F80" fill-rule="nonzero" d="M198.769 88.064c-2.863-1.174-6.545-5.052-5.625-6.864.203-.458.324-.951.358-1.456.059-.684.067-1.373.026-2.059a29.77 29.77 0 0 0-.384-3.352s8.936.213 8.416 1.602c-.152.41-.178 1.116-.135 1.906.044.79.15 1.688.263 2.446.154 1.036.312 1.83.312 1.83s-.549.808-.867.851c-.32.044 1.743 6.777-2.364 5.096z"/>
                <path fill="#000" fill-rule="nonzero" d="M193 192.524l-.067.069c-2.664-2.998-5.885.74-5.885.74l-.048-.08.164-1.696 5.053-1.224.716 2.039.067.152zM213 188.634s-1.984-.05-3.042 1.12c-1.058 1.168-6.172.25-5.951 0 .064-.128.103-.273.115-.423l.694-.697 8.129-.3c.03.192.055.3.055.3z" opacity=".1"/>
                <path fill="#6C63FF" fill-rule="nonzero" d="M195.977 161.925c-.15.385-.265.784-.342 1.192a14.104 14.104 0 0 0-.155 3.385c.083 1.627 0 12.532 0 12.532s-1.779 2.908-2.772 3.933c-.994 1.025 2.023 2.867 2.023 2.867.45 2.652-2.275 5.646-2.275 5.646-2.77-3.464-6.12.853-6.12.853s-1.821-3.254-2.276-4.417c-.454-1.162 1.779-1.964 2.564-2.438.784-.474-.04-3.255-.04-3.255s-.662-2.438-1.449-4.663.868-13.297.868-13.297.085-1.969.29-2.655a4.645 4.645 0 0 0 .06-1.506c-.013-.17-.029-.31-.04-.407-.011-.097-.02-.14-.02-.14l.031-.055 1.125-2.167s9.067 3.227 8.528 4.592zM213 188.95s-2.091-.044-3.207.91c-1.115.952-6.506.209-6.274 0 .232-.21.211-1.756.211-1.756-3.162-4.228-.464-5.943-.464-5.943s-1.41-6.652-1.666-9.12c-.18-1.721-.4-6.367-.519-8.998-.05-1.138-.081-1.922-.081-1.922l2.56-.498.333-.064 6.232-1.226s.172 1.137.289 2.068c.058.397.09.797.095 1.198-.04.455 0 1.88 0 1.88l.214 4.267c-.138.448-.21.913-.214 1.38.044.547.855 8.327.855 8.327s1.41 4.644.93 4.978c-.481.334.706 4.519.706 4.519z"/>
                <path fill="#000" fill-rule="nonzero" d="M201.977 76.063c-.162.442-.19 1.205-.144 2.058-2.605 1.675-5.879 1.61-8.424-.168a32.524 32.524 0 0 0-.409-3.62s9.532.23 8.977 1.73z" opacity=".1"/>
                <path fill="#CF6F80" fill-rule="nonzero" d="M205.995 71.287c.053 4.39-3.485 7.993-7.901 8.046-4.417.052-8.041-3.465-8.094-7.856v-.19c0-4.393 3.582-7.954 8-7.954s8 3.561 8 7.954h-.005z"/>
                <path fill="#000" fill-rule="nonzero" d="M198.769 88.05c-2.863-1.23-6.545-5.293-5.625-7.192.203-.48.324-.996.358-1.525l3.918 3.563 2.424 2.198 1.844-5.185c.154 1.086.312 1.918.312 1.918s-.549.846-.867.892c-.32.045 1.743 7.094-2.364 5.332z" opacity=".1"/>
                <path fill="#6C63FF" fill-rule="nonzero" d="M211 103.323l-3.344 58.712-4.361.298L192 128.29l1.853-40.417.392-8.54 5.021 4.31 2.478 2.124 1.939-5.158 3.605 3.285z"/>
                <path fill="#000" fill-rule="nonzero" d="M195.979 161.3c-.14.333-.246.68-.317 1.033a30.952 30.952 0 0 1-8.606-2.598l-.056-.029.019-.324v-.17l1.042-1.879s8.418 2.783 7.918 3.966zM203 164.096c-.642.117-1.289.196-1.939.237-.038-.935-.061-1.58-.061-1.58l1.942-.42.058 1.763zM210 161.582c-1.52.458-3.87.973-5.97.651l-.03-1.566 5.735-1.334s.152 1.227.265 2.25z" opacity=".1"/>
                <path fill="#000" fill-rule="nonzero" d="M204 161.994c-9.484 1.601-18.17-2.99-18.17-2.99l.083-1.554s.215-17.633-.382-18.985c-.596-1.352-1.061-8.198-.724-9.243.338-1.045-1.233-16.827-1.233-16.827l-.254-6.405-9.32-3.744 4.164-8.584a30.807 30.807 0 0 0 1.448-3.706c.724-2.23 4.085-4.419 4.085-4.419s3.447-2.186 4.81-2.104c1.362.082 3.147-1.935 3.147-1.935 1.319-3.324 2.513-1.83 2.513-1.83 0 .16 0 0-.065.492-.463 3.648 7.48 15.176 7.594 15.382l.766 18.22.765 23.058.773 25.174z" opacity=".1"/>
                <path fill="#FFF" fill-rule="nonzero" d="M204 161.994c-9.482 1.601-18.168-2.99-18.168-2.99l.085-1.554s.213-17.633-.384-18.985c-.596-1.352-1.061-8.204-.721-9.259.34-1.054-1.24-16.82-1.24-16.82l-.257-6.405-9.315-3.744 4.163-8.585a31.293 31.293 0 0 0 1.448-3.703c.723-2.223 4.095-4.414 4.095-4.414s3.446-2.187 4.806-2.104c1.36.082 3.155-1.933 3.155-1.933 1.32-3.324 2.775-1.83 2.775-1.83 0 .16-.139.229-.065.492 1.018 3.538 7.225 15.176 7.338 15.382l.766 18.22.749 23.07.77 25.162z"/>
                <path fill="#000" fill-rule="nonzero" d="M201 96.333c-1.05-.415-6.617-6.44-6.617-6.44v-1.371c-.203-.452-1.408-.176-2.383.14l.42-8.329.476.375c1.041 3.493 7.99 15.424 8.104 15.625z" opacity=".1"/>
                <path fill="#FFF" fill-rule="nonzero" d="M202 96.333c-1.053-.418-6.618-6.443-6.618-6.443v-1.374c-.202-.452-1.405-.176-2.382.14l.412-8.323.477.373c1.05 3.49 7.994 15.424 8.111 15.627z"/>
                <path fill="#000" fill-rule="nonzero" d="M185.53 126.011c.13 0 6.726-.678 6.726-.678s3.994 7.677 3.732 9.542c-.262 1.865-.736 3.52-2.343 3.228-1.606-.293-8.645.23-8.645.23l.53-12.322z" opacity=".1"/>
                <path fill="#FFF" fill-rule="nonzero" d="M185.53 126.012c.133 0 6.727-.679 6.727-.679s3.99 7.694 3.73 9.54c-.259 1.845-.737 3.523-2.341 3.23-1.604-.293-8.646.23-8.646.23l.53-12.321z"/>
                <path fill="#CF6F80" fill-rule="nonzero" d="M190.315 122.333s5.562 3.544 5.681 4.622c.12 1.078-2.83-.472-3.468-.662a7.085 7.085 0 0 0-1.277-.237l-4.251.136 3.315-3.859z"/>
                <circle cx="200" cy="97.333" r="1" fill="#000" fill-rule="nonzero" opacity=".1"/>
                <circle cx="200" cy="95.333" r="1" fill="#3F3D56" fill-rule="nonzero"/>
                <circle cx="200" cy="123.333" r="1" fill="#000" fill-rule="nonzero" opacity=".1"/>
                <circle cx="200" cy="123.333" r="1" fill="#3F3D56" fill-rule="nonzero"/>
                <circle cx="200" cy="109.333" r="1" fill="#000" fill-rule="nonzero" opacity=".1"/>
                <circle cx="200" cy="109.333" r="1" fill="#3F3D56" fill-rule="nonzero"/>
                <path fill="#FFF" fill-rule="nonzero" d="M215.19 125.701s.408.639 0 .925c-.41.287.04 1.023.04 1.023s-1.02.62-.571 1.182c.448.562.164 3.085.164 3.085l-1.226 2.126s.074 1.362.078 3.203c0 2.873-.162 6.911-1.059 8.752l.12 15.106s-4.291 1.635-7.883 1.135L204.32 138s.777-13.746 1.063-16.382c.168-1.37.236-2.75.204-4.129 0 0-.122-4.126-.532-6.04 0 0-.444-8.298-.489-10.595-.02-1.098.036-4.304.098-7.352.069-3.333.146-6.477.146-6.477l-.81-6.682s.81-.083 1.055.255c.109.106.228.202.355.284 1.4.986 6.342 4.016 6.342 4.016s2.736 1.133 3.39 2.757c.655 1.623 1.11 2.775 1.428 3.238.317.462.49 2.636.49 2.636s.942 4.002 1.677 4.68c.735.677 1.263 4.98 1.263 4.98l-6.494 5.319s-.57 8.85-.692 9.191c-.122.343 2.375 8.003 2.375 8.003z"/>
                <path fill="#FFF" fill-rule="nonzero" d="M215.958 125.737s.425.638 0 .925c-.424.286.04 1.02.04 1.02s-1.065.62-.597 1.182c.47.561.172 3.082.172 3.082l-1.276 2.124s.077 1.36.084 3.2c0 2.87-.17 6.904-1.107 8.743l.127 15.091s-4.485 1.634-8.239 1.135l-.554-24.216s.81-13.732 1.111-16.366c.176-1.368.246-2.747.211-4.125 0 0-.127-4.122-.554-6.033 0 0-.464-8.29-.513-10.585-.02-1.097.037-4.3.102-7.345.072-3.33.153-6.47.153-6.47L204 80.333s1.118 0 1.376.345a2.2 2.2 0 0 0 .371.284c1.462.984 6.627 4.011 6.627 4.011s2.851 1.132 3.547 2.754c.696 1.622 1.16 2.773 1.492 3.235.332.462.513 2.634.513 2.634s.984 3.998 1.751 4.675c.768.677 1.323 4.975 1.323 4.975l-6.787 5.314s-.596 8.84-.726 9.183c-.13.342 2.471 7.994 2.471 7.994z"/>
                <path fill="#000" fill-rule="nonzero" d="M205.984 88.408l.685 1.747-3.594 3.178c.08-3.27.17-6.356.17-6.356L202 80.333s1.245 0 1.532.339c.126.105.265.199.414.279L207 88.689l-1.016-.281z" opacity=".1"/>
                <path fill="#FFF" fill-rule="nonzero" d="M205.97 88.41l.682 1.746-3.578 3.177c.077-3.27.17-6.354.17-6.354L202 80.333s1.244 0 1.527.338c.126.106.264.2.412.28L207 88.694l-1.03-.283z"/>
                <path fill="#000" fill-rule="nonzero" d="M205.995 71.427c.001.852-.131 1.699-.392 2.509a.329.329 0 0 1-.253-.061c-.063-2.13-1.096-4.13-2.37-5.83a6.144 6.144 0 0 0-1.286-1.349 2.497 2.497 0 0 0-1.744-.499c-.702.097-1.321.58-2.03.641-.935.078-1.772-.577-2.7-.607a2.634 2.634 0 0 0-1.984.931 5.498 5.498 0 0 0-1.064 1.994 11.802 11.802 0 0 0-.594 3.444c-.012.662-.075 1.492-.683 1.733a3.55 3.55 0 0 0-.881-2.696l-.014-.016v-.194c0-4.47 3.582-8.094 8-8.094s8 3.624 8 8.094h-.005z" opacity=".1"/>
                <path fill="#512E4E" fill-rule="nonzero" d="M202.007 56.862a4.905 4.905 0 0 0-3.675-.306c-.612.193-1.19.507-1.81.665-1.327.343-2.875-.028-4.013.8-.632.473-1.013 1.22-1.366 1.947l-.885 1.796c-.482.985-.968 1.986-1.17 3.07-.2 1.084-.079 2.298.565 3.171.466.633 1.16 1.032 1.669 1.63.617.736.919 1.714.831 2.698.575-.236.632-1.07.646-1.73.024-1.17.214-2.329.561-3.438a5.594 5.594 0 0 1 1.006-1.991 2.443 2.443 0 0 1 1.877-.933c.884.033 1.678.687 2.554.607.663-.059 1.25-.54 1.919-.637a2.263 2.263 0 0 1 1.649.498c.467.379.877.833 1.214 1.346 1.207 1.7 2.186 3.688 2.244 5.82.25.194.61-.061.734-.363.123-.303.128-.657.285-.945.181-.333.528-.512.8-.763.69-.635.862-1.704.836-2.675-.027-.97-.204-1.955-.031-2.909.104-.583.338-1.133.466-1.712.129-.578.144-1.228-.159-1.726-.442-.73-1.373-.876-2.184-.944-.922-.085-1.747.023-2.335-.806a9.136 9.136 0 0 0-.928-1.213c-.122-.125-1.3-.905-1.3-.957z"/>
                <path fill="#000" fill-rule="nonzero" d="M177.193 106.897l-2.424-4.564-.769 7.043s.427 3.13.341 3.61c-.086.48 1.752 4.78 1.752 4.78s6.068 11.002 8.546 11.567l8.361-6.088-2.22-2.87s-.769-.304-.962 0c0 0-4.124-7.217-4.55-7.737-.424-.52-.343-1.567-.343-1.567s-.641-.695-.428-1.347c.214-.652-1.226-2.912-1.226-2.912l1.324-1.26-7.402 1.345z" opacity=".1"/>
                <path fill="#FFF" fill-rule="nonzero" d="M174.409 102.333l-.64.513-.769 6.91s.427 3.069.341 3.54c-.086.47 1.752 4.69 1.752 4.69s6.062 10.793 8.538 11.347l8.369-5.972-2.221-2.815s-.768-.3-.96 0c0 0-4.12-7.081-4.547-7.591-.427-.51-.341-1.537-.341-1.537s-.64-.682-.427-1.322c.213-.64-1.24-2.857-1.24-2.857l1.323-1.235-9.178-3.67z"/>
                <path fill="#000" fill-rule="nonzero" d="M214.452 129.372c.426.552.158 3.03.158 3.03l-1.178 2.071s.07 1.34.075 3.146l-1.98.658a1.12 1.12 0 0 1-1.062-.199 1.284 1.284 0 0 1-.464-1.036l.343-11.709 4.618 1.877c-.393.29.038 1.003.038 1.003s-.979.608-.548 1.16z" opacity=".1"/>
                <path fill="#FFF" fill-rule="nonzero" d="M214.451 129.371c.427.55.158 3.025.158 3.025l-1.174 2.072s.07 1.336.077 3.14l-2.017.67a1.097 1.097 0 0 1-1.04-.193 1.252 1.252 0 0 1-.454-1.012l.343-11.74 4.62 1.88c-.395.29.036 1.002.036 1.002s-.98.605-.549 1.156z"/>
                <path fill="#CF6F80" fill-rule="nonzero" d="M217 123.304s-.424 2.298-1.486 2.433c-1.063.135-1.539 3.718-2.598 3.593-1.06-.125-.358-3.333-.32-3.955.037-.622-1.155-3.197-.266-3.782.89-.585 3.718 0 3.718 0l.952 1.711z"/>
                <path fill="#000" fill-rule="nonzero" d="M217.77 106.526l1.38-3.193s.553 2.434.553 3.734c0 1.3.77 1.428.77 1.428s.842 1.14.398 1.972c-.445.833-.622 2.895-.622 2.895s.145 3.943-.514 4.488c-.66.545-.807 1.847-.807 1.847s-1.21 2.475-1.172 3.063c.038.589-1.686 4.573-1.686 4.573s.843-4.951-4.069-7.09c0 0-.038-1.679.329-2.14.367-.46.938-.684.58-3.001-.359-2.317-.104-5.111-.104-5.67 0-.559 1.1-4.041 1.1-4.041l3.864 1.135z" opacity=".1"/>
                <path fill="#FFF" fill-rule="nonzero" d="M217.94 102.333l1.21.467s.552 2.487.552 3.816c0 1.33.77 1.46.77 1.46s.843 1.165.399 2.016c-.445.851-.625 2.959-.625 2.959s.148 4.031-.512 4.588c-.66.557-.798 1.889-.798 1.889s-1.21 2.53-1.173 3.13c.038.602-1.69 4.675-1.69 4.675s.844-5.061-4.072-7.248c0 0-.036-1.716.331-2.187.367-.47.94-.7.58-3.068-.359-2.369-.103-5.225-.103-5.796 0-.571 1.1-4.131 1.1-4.131l4.032-2.57z"/>
                <path fill="#000" fill-rule="nonzero" d="M187 186.921s2.82-2.951 4.67-.807c1.85 2.145-4.67.807-4.67.807zM206 182.345s2.497-.245 4.593 1.479c2.097 1.723-4.593-1.479-4.593-1.479z" opacity=".1"/>
                <g fill="#000" fill-rule="nonzero" opacity=".1">
                    <path d="M207.58 71.18c-.27.251-.617.427-.798.757-.153.283-.158.634-.28.936-.124.302-.482.552-.733.36-.057-2.106-1.03-4.084-2.228-5.769a5.836 5.836 0 0 0-1.207-1.332 2.26 2.26 0 0 0-1.642-.496c-.659.096-1.24.574-1.905.635-.88.077-1.668-.571-2.54-.602a2.42 2.42 0 0 0-1.865.922 5.539 5.539 0 0 0-1 1.973 12.25 12.25 0 0 0-.558 3.408c-.013.653-.07 1.467-.637 1.71.013.174.013.349 0 .523.573-.234.63-1.06.644-1.716a12.25 12.25 0 0 1 .558-3.408c.2-.724.541-1.396 1-1.973a2.43 2.43 0 0 1 1.864-.924c.879.033 1.67.681 2.54.601.66-.058 1.244-.535 1.906-.631a2.26 2.26 0 0 1 1.642.493c.464.376.871.826 1.206 1.334 1.198 1.686 2.172 3.656 2.229 5.77.25.191.609-.061.732-.36.123-.3.127-.651.281-.937.18-.33.527-.508.798-.756.686-.63.857-1.69.83-2.652v-.089c-.043.838-.252 1.688-.837 2.224zM191.354 71.017c-.503-.592-1.194-.99-1.657-1.617a3.537 3.537 0 0 1-.64-1.915c-.069.866.158 1.73.64 2.432.463.627 1.154 1.023 1.657 1.615a3.63 3.63 0 0 1 .83 2.088 3.656 3.656 0 0 0-.83-2.603zM208.844 63.949c-.13.573-.36 1.119-.466 1.697-.063.39-.086.788-.068 1.184.007-.224.03-.447.068-.667.106-.578.336-1.123.466-1.697.074-.316.099-.644.072-.969a3.446 3.446 0 0 1-.072.452z"/>
                </g>
                <ellipse cx="30.5" cy="191.333" fill="#6C63FF" fill-rule="nonzero" opacity=".1" rx="22.5" ry="4"/>
                <path fill="#535461" fill-rule="nonzero" d="M29 119.333h2v33h-2z"/>
                <path fill="#3F3D56" fill-rule="nonzero" d="M38.996 155.548l-.09 1.47-.122 2.08-.052.865-.125 2.08-.053.865-.123 2.08-1.413 23.596c-.125 2.107-1.812 3.75-3.85 3.75H25.83c-2.044 0-3.734-1.652-3.85-3.766l-1.413-23.595-.123-2.081-.051-.865-.127-2.08-.052-.865-.122-2.08-.09-1.47a2.125 2.125 0 0 1 .542-1.543 1.977 1.977 0 0 1 1.454-.656h15.004c.553.004 1.08.243 1.458.662.377.42.57.981.535 1.553z"/>
                <path fill="#9D9CB5" fill-rule="nonzero" d="M39 155.333l-.126 2H20.126l-.126-2zM41 159.333l-.126 2H22.129l-.129-2zM41 162.333l-.129 2h-18.74l-.131-2z"/>
                <path fill="#6C63FF" fill-rule="nonzero" d="M18.269 133.751C26.551 139.83 30 149.333 30 149.333s-9.978-.347-18.262-6.424C3.454 136.83 0 127.333 0 127.333s9.978.34 18.269 6.418z"/>
                <path stroke="#535461" stroke-width="2" d="M0 127.333s10.36 5.83 13.683 10.658C17.006 142.818 30 149.333 30 149.333"/>
                <path fill="#6C63FF" fill-rule="nonzero" d="M23.741 120.129c4.419 3.588 6.259 9.204 6.259 9.204s-5.334-.204-9.741-3.793C15.85 121.952 14 116.333 14 116.333s5.325.205 9.741 3.796z"/>
                <path stroke="#535461" stroke-width="2" d="M14 116.333s5.525 3.446 7.299 6.298c1.773 2.852 8.701 6.702 8.701 6.702"/>
                <path fill="#6C63FF" fill-rule="nonzero" d="M37.358 128.596C32.11 134.117 31 141.333 31 141.333s7.4-1.738 12.642-7.262C48.885 128.547 50 121.333 50 121.333s-7.395 1.741-12.642 7.263z"/>
                <path stroke="#535461" stroke-width="2" d="M50 121.333s-6.834 5.661-8.572 9.561c-1.737 3.9-10.428 10.44-10.428 10.44"/>
            </g>
        </g>
    </g>
</svg>
