<svg xmlns="http://www.w3.org/2000/svg" width="176" height="132" viewBox="0 0 176 132">
    <defs>
        <linearGradient id="a" x1="49.988%" x2="49.988%" y1="99.994%" y2="-.007%">
            <stop offset="0%" stop-color="gray" stop-opacity=".25"/>
            <stop offset="54%" stop-color="gray" stop-opacity=".12"/>
            <stop offset="100%" stop-color="gray" stop-opacity=".1"/>
        </linearGradient>
    </defs>
    <g fill="none" fill-rule="evenodd" transform="translate(-31 -23.52)">
        <path fill="#504F60" fill-rule="nonzero" d="M182 129.304c0 1.077-6.742 4.216-14.75 4.216-8.01 0-14.25-3.14-14.25-4.216 0-1.077 6.491-.73 14.508-.73 8.016 0 14.492-.349 14.492.73z"/>
        <path fill="#000" fill-rule="nonzero" d="M182 129.52c0 1.022-6.742 4-14.75 4-8.01 0-14.25-2.978-14.25-4" opacity=".2"/>
        <path fill="#6C63FF" fill-rule="nonzero" d="M100.461 107.382c1.073.155 2.187.254 3.214-.122.162-.057.34-.183.324-.366a.47.47 0 0 0-.073-.182 11.846 11.846 0 0 1-.97-2.087.184.184 0 0 0-.06-.095.136.136 0 0 0-.104 0c-.475.14-.884.486-1.355.634-.24.074-.49.095-.738.062-.213-.028-.505-.227-.699-.201.11.798.379 1.543.461 2.357zM125.527 105.52c.917-.53 1.867-1.085 2.408-1.901a.296.296 0 0 0 .065-.164.312.312 0 0 0-.078-.159 7.164 7.164 0 0 0-1.957-1.776 5.46 5.46 0 0 0-1.09.847c-.231.204-.869.529-.875.84 0 .177.243.382.357.53.153.19.297.384.436.582.08.097.807 1.162.734 1.201z"/>
        <path fill="#514E7F" fill-rule="nonzero" d="M104.99 110.25a1.05 1.05 0 0 1-.154.625.742.742 0 0 1-.322.215c-1.777.716-3.834-.176-5.607.529-.365.144-.71.353-1.076.491a5.269 5.269 0 0 1-1.342.268c-.627.067-1.258.11-1.886.13a4.05 4.05 0 0 1-1.423-.14c-.47-.136-.866-.49-1.09-.974a1.04 1.04 0 0 1-.054-.692.768.768 0 0 1 .117-.215c.12-.152.26-.281.418-.382l.653-.475c.307-.244.64-.442.991-.59.26-.095.533-.136.796-.216.918-.302 1.62-1.122 2.272-1.909l.89-1.067a.923.923 0 0 1 .308-.279.765.765 0 0 1 .383-.04c.864.069 1.699.383 2.425.914.186.157.387.29.599.397.521.228 1.19.056 1.671-.233.228-.138.179-.216.274-.462.096-.246.33-.403.533-.179.062.078.105.171.127.272.192.712.119 1.477.119 2.223-.006.117.007.234.038.345.049.113.107.22.175.32a.767.767 0 0 1 .036.082c.117.33.161.687.128 1.041z"/>
        <path fill="#464353" fill-rule="nonzero" d="M104.987 110.467c.015.201-.039.401-.153.566a.75.75 0 0 1-.322.195c-1.777.647-3.834-.16-5.607.477-.364.13-.709.32-1.075.445a5.762 5.762 0 0 1-1.342.242c-.626.06-1.257.099-1.886.116a4.462 4.462 0 0 1-1.422-.126 1.713 1.713 0 0 1-1.09-.88.857.857 0 0 1-.054-.625.677.677 0 0 1 .117-.195c.103.22.178.513.243.618.178.315.481.538.832.61.26.016.52-.018.767-.1 1.61-.405 3.321-.41 4.868-1.025.531-.212 1.037-.495 1.595-.624.558-.128 1.15-.093 1.725-.142.909-.074 1.788-.353 2.683-.499.116.301.158.626.121.947z"/>
        <path fill="#514E7F" fill-rule="nonzero" d="M129.987 106.367c-.075.626-.457 1.165-.876 1.622-.42.457-.894.868-1.228 1.394-.41.653-.595 1.462-1.13 2.013-.204.2-.434.371-.684.507-.28.171-.574.312-.881.421-.798.265-1.657.205-2.49.141a2.167 2.167 0 0 1-.791-.158 2.369 2.369 0 0 1-.329-.21 1.601 1.601 0 0 1-.513-.534.552.552 0 0 1-.05-.387.914.914 0 0 1 .238-.377c.188-.203.389-.391.602-.564.293-.196.558-.436.784-.711.14-.218.242-.458.303-.712.121-.443.196-.9.221-1.36 0-.306.03-.611.09-.91.127-.47.463-.89.425-1.375a.356.356 0 0 1 .017-.208.278.278 0 0 1 .158-.101c.261-.109.537-.175.818-.198a.935.935 0 0 1 .76.31c.116.145.193.355.364.412a.557.557 0 0 0 .26.01c.422-.044.867-.099 1.199-.382.31-.289.49-.7.496-1.132 0-.162-.07-.331.171-.356.181-.025.325.178.418.302.333.465.676.95.8 1.515.05-.02.1-.03.153-.03a.655.655 0 0 1 .546.29c.136.23.19.502.149.768z"/>
        <path fill="#464353" fill-rule="nonzero" d="M129.986 104.869c-.076.778-.46 1.448-.882 2.017-.423.568-.9 1.079-1.236 1.733-.414.812-.6 1.818-1.138 2.504-.206.249-.438.46-.69.63a4.406 4.406 0 0 1-.887.524c-.804.33-1.669.254-2.508.175a1.829 1.829 0 0 1-.797-.197 2.39 2.39 0 0 1-.33-.261 1.872 1.872 0 0 1-.518-.664c.162-.1.338-.154.517-.159.372.027.645.478 1.002.617.508.197 1.015-.263 1.53-.42.337-.102.69-.075 1.023-.221.277-.138.533-.337.756-.588.306-.281.579-.618.809-1a7.28 7.28 0 0 0 .474-1.214c.272-.814.593-1.601.958-2.353.054-.119.12-.229.195-.327.081-.095.173-.161.264-.245.345-.334.488-.885.608-1.425.033-.164.079-.323.137-.475.218-.002.423.132.55.36.148.292.206.645.163.989z"/>
        <path fill="#A1616A" fill-rule="nonzero" d="M87.687 43.563c.438.38.799.868 1.057 1.428.246.56 1.667 4.898 1.585 5.529.463-.54 2.289-.629 2.757-1.17.196-.226 1.25-1.357 1.41-1.62.158-.263 1.334-.816 1.463-1.094.48-.998-3.41-4.78-2.911-5.765a.287.287 0 0 0 .04-.155.261.261 0 0 0-.065-.12c-.319-.378-.741-.613-1.125-.892-.384-.28-.754-.67-.858-1.184a3.722 3.722 0 0 0-.995.78 81.013 81.013 0 0 0-2.104 2.169c-.27.29-.791.675-.916 1.09-.148.445.405.761.662 1.004z"/>
        <path fill="#514E7F" fill-rule="nonzero" d="M95.399 43.52a12.68 12.68 0 0 0-1.836 1.532c-.531.536-1.035 1.157-1.163 1.907-.055.295-.047.594-.092.893-.194 1.296-1.291 2.246-1.776 3.459-.14.374-.244.762-.309 1.157-.136.75-.21 1.51-.223 2.272-.011.738.698 1.247.958 1.935.26.689.33 1.397.462 2.104.248 1.334.704 2.62 1.164 3.898.956 2.695 4.056 10.146 5.012 12.843 2.931-.75 10.733-2.474 13.328-4.055.866-.526-6.003-6.465-5.078-6.874a.346.346 0 0 0 .252-.182.359.359 0 0 0 .008-.315c-.925-4.128-3.82-7.52-5.133-11.539-.455-1.395-1.274-2.586-1.895-3.912-.562-1.2-.863-2.529-1.536-3.67a2.308 2.308 0 0 0-.49-.624 2.884 2.884 0 0 0-.542-.334c-.384-.19-.741-.303-1.111-.495z"/>
        <circle cx="87.5" cy="39.02" r="4.5" fill="#A1616A" fill-rule="nonzero"/>
        <path fill="#464353" fill-rule="nonzero" d="M93 39.935a1.61 1.61 0 0 1 1.783-.253c.321.164.602.496.53.843l2.353.036c.374-.01.749.024 1.115.1.369.08.698.283.93.575.029.038.061.083.11.09.038 0 .076-.013.107-.036a2.07 2.07 0 0 1 1.172-.198c1.272.081 2.447.707 3.444 1.49.18.12.32.292.401.491.082.263-.016.592.2.78 0 2.172.759 4.203 1.265 6.32.09.377.457.71.712 1.007.314.328.571.706.76 1.118.43 1.098-.163 2.39.255 3.491.176.466.517.85.802 1.254.375.468.613 1.028.686 1.62.018.264-.016.53 0 .79.027.355.094.707.2 1.048.172.637.351 1.274.538 1.91.305 1.027.702 2.135 1.637 2.682-2.257.377-4.636.746-6.786-.026-.3-.1-.585-.241-.846-.417-.777-.545-1.152-1.477-1.487-2.358-.373-.987-.752-1.992-.828-3.043 0-.334-.048-.667-.143-.987-.218-.573-.802-.919-1.332-1.237a6.383 6.383 0 0 1-1.604-1.228 2.432 2.432 0 0 1-.65-1.845c.04-.325.17-.64.182-.967.012-.328-.136-.703-.455-.79-1.643-.49-2.427-2.406-2.792-4.057a12.825 12.825 0 0 1-.211-2.587l-.022-1.684a2.209 2.209 0 0 1-.738-1.598 1.869 1.869 0 0 0-.01-.53 1.458 1.458 0 0 0-.377-.562A5.026 5.026 0 0 1 93 39.935zM88.315 45.865c-.052.505.063 1.023-.05 1.518-.044.192-.12.383-.176.561a3.29 3.29 0 0 0 .209 2.129c.304.66.668 1.29 1.088 1.884.142.203.259.422.348.652.072.243.117.492.134.745.11 1.013.288 2.017.532 3.007.214.857 2.647 8.183 3.213 8.862.103.15.258.256.436.296a.794.794 0 0 0 .371-.076l1.148-.44a.75.75 0 0 0 .265-.145.685.685 0 0 0 .165-.452c.082-.933-2.356-8.311-2.666-9.193-.937-2.663-2.184-5.23-2.795-7.986-.17-.766-.26-1.944-.82-2.554-.232-.253-.153-.145-.43-.013a3.14 3.14 0 0 0-.406.212 1.328 1.328 0 0 0-.566.993z"/>
        <path fill="#6C63FF" fill-rule="nonzero" d="M91.333 51.529c.377 1.665.767 3.326 1.154 4.991l5.509-1.203c.044-.482-.263-.928-.47-1.37-.502-1.05-.513-2.22-.92-3.3-.307-.823-.841-1.578-1.13-2.406-.167-.48-.251-.978-.415-1.465a9.647 9.647 0 0 0-.648-1.4 8.417 8.417 0 0 0-1.201-1.856c-.704.22-1.455.474-1.856 1.004a1.911 1.911 0 0 0-.342.978c-.097 1.031.352 2.068.204 3.094a7.615 7.615 0 0 0 .115 2.933z"/>
        <path fill="#464353" fill-rule="nonzero" d="M96.621 73.375c.266.97-.118 1.992-.432 2.953a22.216 22.216 0 0 0-.96 4.446c-.02.384-.1.763-.237 1.124-.149.324-.402.598-.575.907-.474.811-.462 1.801-.36 2.73.069.611.171 1.22.298 1.822.155.736.346 1.505.123 2.223.373-.08.626.389.602.756-.024.367-.146.776.037 1.093.462.163.466.776.452 1.252.007.825.115 1.646.321 2.446.7 3.249 1.441 6.488 2.226 9.719 1.698.509 3.681 1.039 5.3.334.302-.13.603-.338.672-.652.017-.17-.005-.341-.065-.501l-.767-2.699c-.187-.652-.374-1.326-.275-1.996.074-.499.299-1.036.046-1.477-.087-.152-.223-.27-.324-.414-.401-.569-.19-1.33-.158-2.019.012-.155.001-.31-.032-.462a2.267 2.267 0 0 0-.23-.507 7.534 7.534 0 0 1-.884-3.855.924.924 0 0 0-.07-.503 1.618 1.618 0 0 1-.13-.206.546.546 0 0 1 .042-.37 3.464 3.464 0 0 1-.62-.583.82.82 0 0 0 .149-1.309.446.446 0 0 0 .347-.312.427.427 0 0 0-.131-.44c-.099-.065-.23-.094-.3-.193-.108-.144-.02-.344.068-.497l.469-.818c.35-.607.428-1.359.803-1.941.539-.848.89-1.794 1.238-2.73l1.352-3.605.91.763c.304.224.558.504.748.823.13.316.211.648.243.986.333 1.957 1.607 3.654 2.08 5.582.104.43.174.88.43 1.247.09.112.173.232.245.357.066.19.1.39.102.592.085.798.525 1.52 1.206 1.98.448.297 1.004.501 1.247.97.049.146.116.285.201.414.217.253.685.282.778.598.052.177-.044.389.058.544a.531.531 0 0 0 .223.161l1.308.631c1.463.707 2.21 2.33 3.29 3.512.372.385.702.807.984 1.258.466.806.68 1.817 1.468 2.33.212.106.405.244.571.41.247.314.157.755.179 1.15.022.397.335.869.725.748-.136.48-.136.986 0 1.466a7.78 7.78 0 0 0 4.634-1.813c.381-.322.749-.734.753-1.223a.427.427 0 0 0-.056-.243.715.715 0 0 0-.296-.215c-1.223-.641-1.59-2.126-2.21-3.332-.54-1.064-1.34-1.98-2.009-2.968-1.455-2.126-2.447-4.699-4.647-6.102-.485-.31-1.047-.583-1.29-1.093-.135-.286-.151-.612-.257-.907-.107-.295-.362-.583-.688-.583.181-.427.145-.947.157-1.409a1.724 1.724 0 0 0-.072-.608 2.922 2.922 0 0 0-.324-.602 5.623 5.623 0 0 1-.828-3.106c.017-.56.119-1.14-.056-1.675-.088-.27-.243-.517-.35-.777a4.705 4.705 0 0 1-.25-1.46l-.121-1.866a8.887 8.887 0 0 0-.25-1.844c-.401-1.448-.803-7.515-2.18-8.199-1.376-.683-3.74 3.986-5.29 4.077a7.102 7.102 0 0 0-2.009.375c-1.03.373-1.894 1.068-2.736 1.747l-2.85 2.313c-.602.48-1.1.937-1.766 1.275zM85.015 33.806c.527-.815 1.431-1.247 2.322-1.283.891-.037 1.769.28 2.567.73.236.152.487.27.75.348.421.098.89-.032 1.272.192.506.304.604 1.078.56 1.72-.044.643-.15 1.356.152 1.913.107.158.205.325.292.499.13.33.054.713-.024 1.063-.197-.191-.309-.48-.484-.702-.176-.222-.481-.37-.699-.204-.218.166-.214.468-.226.74-.012.271-.073.596-.299.684a.459.459 0 0 1-.506-.223c-.386-.536-.231-1.39-.614-1.93-.218-.306-.58-.455-.782-.776-.158-.253-.199-.574-.337-.845-.138-.272-.46-.47-.675-.283-.073.079-.134.171-.18.273-.276.447-.786.62-1.233.42a1.944 1.944 0 0 0-.533-.261c-.25-.015-.487.134-.61.382-.12.243-.179.52-.168.8 0 .382.06.79-.131 1.095a1.067 1.067 0 0 1-.27.29c-.282.205-.676.343-.935.11a.863.863 0 0 1-.21-.742c.05-.266.117-.528.2-.784.148-.593-.046-1.26.116-1.819.17-.503.4-.976.685-1.407z"/>
        <path fill="#6C63FF" fill-rule="nonzero" d="M86.015 48.073a.738.738 0 0 0 .044.435c.058.094.139.172.234.227.667.42 1.426.67 2.21.725.107.001.212.029.306.08.186.124.198.401.129.622-.093.208-.14.434-.141.662.057.42.55.602.964.665.582.074 1.218.036 1.679-.331.312-.288.55-.648.692-1.05 1.14-2.647 1.538-5.574 2.691-8.213.087-.172.146-.358.173-.55a.545.545 0 0 0-.215-.505c-.214-.135-.547-.059-.692-.27-.072-.106-.064-.25-.127-.363-.133-.238-.482-.2-.72-.339-.187-.1-.316-.307-.524-.347a.655.655 0 0 0-.542.237c-.677.638-1.032 1.543-1.409 2.398a28.221 28.221 0 0 1-2.016 3.781c.09-.14-.428-1.204-.63-1.25-.356-.072-.81.558-1.003.793a5.079 5.079 0 0 0-1.103 2.593z"/>
        <path fill="#000" fill-rule="nonzero" d="M95 40.52c-.391.004-.759.125-.998.328-.288.245-.345.57-.417.882-.245.989-.784 1.937-1.585 2.79" opacity=".1"/>
        <path fill="#000" fill-rule="nonzero" d="M95 40.52c-.554.01-1.06.252-1.332.638-.182.345-.295.71-.336 1.083-.235.827-.69 1.604-1.332 2.279" opacity=".1"/>
        <path fill="#33323D" fill-rule="nonzero" d="M143 79.328V76.73c0-3.982-3.091-7.21-6.903-7.21H37.903C34.09 69.52 31 72.748 31 76.73v4.79l112-2.192z"/>
        <path fill="#8DD070" fill-rule="nonzero" d="M66.007 65.89s-.278 17.436 2.77 23.174c3.049 5.737 4.355 30.695 4.355 30.695s31.954 3.352 54.22-4.015c22.268-7.367 69.648-10.38 69.648-10.38l-7.984-54.58s-39.446-2.565-61.885 8.289c-22.44 10.854-61.124 6.817-61.124 6.817z"/>
        <path fill="#000" fill-rule="nonzero" d="M66.007 65.89s-.278 17.436 2.77 23.174c3.049 5.737 4.355 30.695 4.355 30.695s31.954 3.352 54.22-4.015c22.268-7.367 69.648-10.38 69.648-10.38l-7.984-54.58s-39.446-2.565-61.885 8.289c-22.44 10.854-61.124 6.817-61.124 6.817z" opacity=".1"/>
        <path fill="#8DD070" fill-rule="nonzero" d="M71.198 73.091s-1.008 14.134 1.522 18.65c2.53 4.516 2.647 24.677 2.647 24.677s29.007 1.33 49.64-5.609C145.641 103.872 189 99.371 189 99.371l-4.927-43.85s-35.877-.364-56.816 9.402-56.059 8.168-56.059 8.168z"/>
        <ellipse cx="125.217" cy="86.789" fill="#000" fill-rule="nonzero" opacity=".1" rx="7.509" ry="15.919" transform="rotate(-7.1 125.217 86.789)"/>
        <path fill="#000" fill-rule="nonzero" d="M166.646 25.52s-38.71 9.67-56.964 26.692C91.428 69.233 53 77.293 53 77.293s5.062 16.398 9.745 20.835c4.682 4.436 13.564 27.392 13.564 27.392s31.743-6.643 50.897-20.355S191 74.135 191 74.135L166.646 25.52z" opacity=".2"/>
        <path fill="#8DD070" fill-rule="nonzero" d="M52 75.292s5.06 16.4 9.739 20.837c4.679 4.437 13.564 27.391 13.564 27.391s31.748-6.641 50.904-20.353C145.364 89.454 190 72.142 190 72.142L165.645 23.52s-38.708 9.67-56.962 26.692C90.428 67.234 52 75.292 52 75.292z"/>
        <path fill="#000" fill-rule="nonzero" d="M52 75.292s5.06 16.4 9.739 20.837c4.679 4.437 13.564 27.391 13.564 27.391s31.748-6.641 50.904-20.353C145.364 89.454 190 72.142 190 72.142L165.645 23.52s-38.708 9.67-56.962 26.692C90.428 67.234 52 75.292 52 75.292z" opacity=".1"/>
        <path fill="#8DD070" fill-rule="nonzero" d="M62 78.511s3.395 13.773 7.166 17.307c3.77 3.534 10.073 22.702 10.073 22.702s27.72-7.537 45.016-20.408C141.552 85.24 181 67.815 181 67.815L162.886 27.52s-33.892 10.536-50.608 26.194C95.562 69.373 62 78.511 62 78.511z"/>
        <ellipse cx="116.752" cy="75.714" fill="#000" fill-rule="nonzero" opacity=".1" rx="7.495" ry="15.951" transform="rotate(-24.97 116.752 75.714)"/>
        <path fill="#000" fill-rule="nonzero" d="M145 81.313v67.381a5.77 5.77 0 0 1-1.74 4.12 6 6 0 0 1-4.2 1.706H36.936c-3.279-.001-5.936-2.61-5.936-5.826V74.52c2.926 1.066 2.926 1.066 5.936.977H139.06c3.276 0 5.933 2.602 5.94 5.816z" opacity=".1"/>
        <path fill="#504F60" fill-rule="nonzero" d="M145 82.315v67.38c0 3.217-2.66 5.825-5.94 5.825H36.936c-3.279-.001-5.936-2.61-5.936-5.826V75.52c2.926 1.064 2.926 1.064 5.936.977H139.06c3.277 0 5.935 2.603 5.94 5.818z"/>
        <path fill="#000" fill-rule="nonzero" d="M144 106.52v21h-21.21c-5.983-.077-10.79-4.756-10.79-10.5s4.807-10.423 10.79-10.5H144z" opacity=".1"/>
        <path fill="#33323D" fill-rule="nonzero" d="M144 106.52v21h-21.21c-5.983-.077-10.79-4.755-10.79-10.498 0-5.743 4.807-10.42 10.79-10.498l21.21-.004z"/>
        <circle cx="123.5" cy="118.02" r="4.5" fill="#000" fill-rule="nonzero" opacity=".1"/>
        <circle cx="125.5" cy="117.02" r="4.5" fill="#6C63FF" fill-rule="nonzero"/>
        <path fill="#FBBEBE" fill-rule="nonzero" d="M181.174 105.704c.172 1.9-1.239 3.744-.828 5.604.09.399.257.774.318 1.176.17 1.106-.476 2.151-1.093 3.075l-5.301 7.93a4.907 4.907 0 0 1-.757.952c-1.012.92-2.533.825-3.865 1.1a6.543 6.543 0 0 0-2.59 1.167.171.171 0 0 0-.024.23 2.21 2.21 0 0 0 1.926.923c.14.187 0 .462-.202.596-.285.206-.676.256-.733.747a.824.824 0 0 0 .097.495c.214.333.546.569.927.658 1.835.57 3.818-.434 5.192-1.801 1.374-1.368 2.36-3.094 3.707-4.486.747-.77 1.595-1.43 2.364-2.176 1.533-1.49 2.725-3.3 3.877-5.113.346-.547.694-1.108.84-1.741.145-.634.076-1.273.24-1.886.215-.804.791-1.443 1.27-2.118.942-1.32 1.569-2.935 1.446-4.56-.124-1.626-1.113-3.232-2.619-3.785a2.286 2.286 0 0 0-1.467-.09c-.617.193-1.072.713-1.493 1.21l-1.012 1.186c-.252.26-.451.569-.587.907a.964.964 0 0 0 .203 1.009"/>
        <path fill="#000" fill-rule="nonzero" d="M181.174 105.704c.172 1.9-1.239 3.744-.828 5.604.09.399.257.774.318 1.176.17 1.106-.476 2.151-1.093 3.075l-5.301 7.93a4.907 4.907 0 0 1-.757.952c-1.012.92-2.533.825-3.865 1.1a6.543 6.543 0 0 0-2.59 1.167.171.171 0 0 0-.024.23 2.21 2.21 0 0 0 1.926.923c.14.187 0 .462-.202.596-.285.206-.676.256-.733.747a.824.824 0 0 0 .097.495c.214.333.546.569.927.658 1.835.57 3.818-.434 5.192-1.801 1.374-1.368 2.36-3.094 3.707-4.486.747-.77 1.595-1.43 2.364-2.176 1.533-1.49 2.725-3.3 3.877-5.113.346-.547.694-1.108.84-1.741.145-.634.076-1.273.24-1.886.215-.804.791-1.443 1.27-2.118.942-1.32 1.569-2.935 1.446-4.56-.124-1.626-1.113-3.232-2.619-3.785a2.286 2.286 0 0 0-1.467-.09c-.617.193-1.072.713-1.493 1.21l-1.012 1.186c-.252.26-.451.569-.587.907a.964.964 0 0 0 .203 1.009" opacity=".05"/>
        <path fill="#3F3D56" fill-rule="nonzero" d="M185.388 153.251c-1.097.568-2.465.602-3.74.47-.206-.021-.45-.034-.576.101-.192.195.035.488.269.639a6.112 6.112 0 0 0 2.568.895c.832.1 1.672.148 2.513.142 2.302.034 4.604.067 6.869-.213.134-.009.265-.04.384-.094a.598.598 0 0 0 .284-.366c.155-.5-.144-1.037-.597-1.385-.453-.348-1.034-.541-1.602-.728l-1.995-.659c-.468-.154-1.218-.564-1.726-.531-.955.058-1.859 1.336-2.651 1.73z"/>
        <path fill="#000" fill-rule="nonzero" d="M185.388 153.251c-1.097.568-2.465.602-3.74.47-.206-.021-.45-.034-.576.101-.192.195.035.488.269.639a6.112 6.112 0 0 0 2.568.895c.832.1 1.672.148 2.513.142 2.302.034 4.604.067 6.869-.213.134-.009.265-.04.384-.094a.598.598 0 0 0 .284-.366c.155-.5-.144-1.037-.597-1.385-.453-.348-1.034-.541-1.602-.728l-1.995-.659c-.468-.154-1.218-.564-1.726-.531-.955.058-1.859 1.336-2.651 1.73z" opacity=".05"/>
        <path fill="#464353" fill-rule="nonzero" d="M185.585 125.434c-.869 1.163-1.767 2.505-1.553 3.944.116.776.548 1.46.865 2.177.429.973.654 2.018.874 3.06.325 1.522.652 3.048.85 4.594.227 1.747-.838 6.8-.936 8.558-.024.424-.074.882-.367 1.187-.114.12-.267.218-.32.375a.646.646 0 0 0 .071.444c.49 1.11 1.49 1.938 2.608 2.41 1.117.473 3.81 1.289 5.028 1.33a.997.997 0 0 0 .474-.062c.162-.1.29-.246.365-.422.872-1.68.034-7.65.046-9.546.012-1.58.383-3.151.315-4.73-.056-1.268-.401-2.507-.516-3.77-.2-2.072.177-4.153.556-6.2.289-1.57.58-3.141.95-4.692.227-.946.49-1.901 1.004-2.723.4-.652.964-1.197 1.432-1.817a8.239 8.239 0 0 0 1.604-6.003c-.028-.202-3.008.76-3.271.876a10.184 10.184 0 0 0-2.917 1.887c-.69.662-1.233 1.547-1.837 2.288a211.131 211.131 0 0 0-2.531 3.167 177.988 177.988 0 0 0-2.794 3.668z"/>
        <path fill="#000" fill-rule="nonzero" d="M185.585 125.538c-.869 1.174-1.767 2.532-1.553 3.983.116.785.548 1.476.865 2.199.429.98.654 2.038.874 3.088.325 1.539.652 3.08.85 4.639.227 1.765-.838 6.864-.936 8.64-.024.427-.074.892-.367 1.2-.114.12-.267.218-.32.377a.655.655 0 0 0 .071.448c.49 1.123 1.49 1.957 2.608 2.446 1.117.49 3.81.915 5.028.956a.988.988 0 0 0 .474-.063c.162-.1.29-.248.365-.424.872-1.696.034-7.338.046-9.253.012-1.598.383-3.182.315-4.778-.057-1.28-.402-2.531-.516-3.805-.2-2.093.177-4.194.556-6.261.289-1.584.58-3.17.95-4.737.227-.956.49-1.92 1.003-2.75.402-.658.965-1.208 1.433-1.834a8.373 8.373 0 0 0 1.604-6.061c-.028-.204-3.009.768-3.271.885a10.222 10.222 0 0 0-2.917 1.907c-.69.667-1.233 1.56-1.837 2.307a206.315 206.315 0 0 0-2.531 3.2 153.632 153.632 0 0 0-2.794 3.691z" opacity=".05"/>
        <circle cx="177.5" cy="96.02" r="4.5" fill="#FBBEBE" fill-rule="nonzero"/>
        <path fill="#FBBEBE" fill-rule="nonzero" d="M181.81 94.5a6.537 6.537 0 0 0 4.19 2.972l-.38 1.405c-.657 2.415-1.396 4.969-3.23 6.643.209-.818-.057-1.691-.51-2.402-.454-.71-1.09-1.268-1.714-1.82l-2.904-2.558a.886.886 0 0 1-.208-.25.762.762 0 0 1 0-.562c.37-1.171 1.426-1.902 2.287-2.693a8.02 8.02 0 0 0 1.15-1.362c.58-.841.94.005 1.32.626z"/>
        <path fill="#464353" fill-rule="nonzero" d="M171.135 91.91l-.103-.794c.719.174 1.402-.393 1.861-.98.46-.586.886-1.278 1.586-1.523.85-.296 1.75.174 2.563.571.91.468 1.908.77 2.94.888.165.005.329.03.487.073.529.174.78.79.857 1.349.077.559.057 1.152.317 1.65.188.378.537.658.75 1.03.564 1 .02 2.366.607 3.346l-1.46-1.241c-.133-.113-.32-.232-.469-.136-.116.077-.126.242-.173.374-.14.387-.662.502-1.04.349-.376-.154-.652-.486-.937-.789-.646-.707-1.415-1.328-2.316-1.63a3.182 3.182 0 0 0-2.44.15c-.68.357-1.18 1.19-2.015 1.219-1.144.04-1.62-1.937-2.15-2.719.4-.279.526-.784.3-1.198.077-.03.818-.111.835.01z"/>
        <path fill="#A1616A" fill-rule="nonzero" d="M111.419 62.851c-.352.402-.677.84-.972 1.31a3.131 3.131 0 0 0-.447 1.684c.002.177.046.35.126.493.085.141.23.198.36.141a.548.548 0 0 0 .181-.203c.19-.294.393-.576.606-.843.077-.1.18-.204.284-.167a.311.311 0 0 1 .123.104c.121.135.21.312.254.51.063.354-.097.708-.28.986-.181.278-.396.544-.47.894a.502.502 0 0 0 0 .287c.035.067.084.12.14.153.523.37 1.147.422 1.702.143.36-.187.682-.51 1.053-.676.16-.056.316-.134.465-.231.214-.184.363-.47.412-.795.047-.32.056-.65.027-.974a13.979 13.979 0 0 0-.62-3.665.483.483 0 0 0-.104-.195.28.28 0 0 0-.18-.062c-.462-.063-1.219-.366-1.664-.146-.155.11-.29.263-.393.449-.082.118-.603.648-.603.803z"/>
        <path fill="#464353" fill-rule="nonzero" d="M111.098 63.83c0-.505-.593-1.722.35-1.802 0-.54-.73-.874-.593-1.447.043-.19.198-.345.215-.539.06-.551-.893-.851-.735-1.38.06-.207.269-.326.314-.531.107-.477-.71-.69-.725-1.18 0-.165.089-.32.08-.485 0-.207-.171-.364-.266-.544-.247-.46-.127-1.173-.577-1.41.298.026.395-.437.273-.72-.123-.283-.374-.529-.376-.843a1.33 1.33 0 0 0 0-.343c-.083-.301-.556-.326-.635-.62a2.76 2.76 0 0 1-.01-.339c-.031-.233-.26-.382-.476-.448a1.89 1.89 0 0 1-.637-.237c-.138-.11-.298-.292-.446-.207-.056.035-.083.101-.125.15-.178.218-.518.123-.741-.036-.66-.47-.989-1.31-1.129-2.13-.14-.82-.136-1.668-.312-2.48a5.478 5.478 0 0 0-.214-.744c-.075-.206-.316-.53-.332-.74-.036-.475.905-.15 1.263-.103.348.036.691.105 1.026.207.358.141.708.302 1.05.481 1.427.66 3.151.74 4.298 1.847.377.364.696.841 1.186 1.007.225.045.447.105.664.18.544.266.629 1.02.925 1.565.094.144.175.297.244.455.057.187.083.382.079.579l.041 1.431c.067 2.4.135 4.804-.11 7.188-.08.788-.198 1.598.025 2.354.06.206.142.4.198.61.049.244.074.493.075.743l.032.928a.3.3 0 0 1-.044.206.276.276 0 0 1-.24.06c-1.235-.115-2.484-.843-3.65-.403"/>
        <ellipse cx="167.5" cy="128.52" fill="#504F60" fill-rule="nonzero" rx="14.5" ry="2"/>
        <path fill="url(#a)" fill-rule="nonzero" d="M178.99 128.516a36.309 36.309 0 0 1-.412-2.055s.058-1.19-.474-2.084v-2.499c.152-.4.337-.786.554-1.153.391-.692 0-3.226 0-3.226s-1.461-3.574-1.107-5.84c.354-2.268-3-10.067-3-10.067.02-.753.126-1.5.314-2.228.036-.153.05-.31.044-.468v-.057.018c-.051-1.495-1.229-4.297-1.229-4.297l.159-5.34s.75-3.143-.474-7.376a39.415 39.415 0 0 1-.876-3.568c-.02-.102-.039-.197-.055-.297 2.521-.393 4.448-.707 4.448-.707s-1.463-6.147-2.45-7.224c-.988-1.076-1.779-4.457-1.779-4.457s-.514-4.34.317-5.61c.832-1.268.949-3.457.949-3.457s1.895-1.375 2.134-1.998c.238-.623.631-1.998.631-2.727 0-.729-.236-1.375-.158-1.768.078-.393-.554-1.845-.237-2.536a1.868 1.868 0 0 0 .126-.686 9.374 9.374 0 0 0-.167-1.803 5.088 5.088 0 0 0-1.877-1.008l-.041-.165-.108-.432a2.085 2.085 0 0 0-.186-.11v-.158l-.017-.624.297-1.403c.587-2.44-2.658-2.803-2.658-2.803a1.714 1.714 0 0 0-.92-.81c-.65-.23-.107 3.67.196 3.93.23.196.937 1.41 1.28 2.011l.054.098c-.053.049-.103.101-.148.157l.123.847.02.13c-.216.268-.39.567-.519.886 0 0 .587.652.475 1.375-.111.723.182 1.64.196 1.69-.035-.042-.452-.493-.869-.383-.416.11-1.58.461-1.58.461s-.868.153-.782.346c.086.193-.587 1.037-.587 1.037l-2.335-2.224c-.024-.066-.049-.133-.069-.196a5.43 5.43 0 0 1-.195-.982c.254-.061.504-.14.747-.238a1.61 1.61 0 0 0 .645-.417c.237-.28.282-.662.378-1.011.184-.684.587-1.291.866-1.941a6.336 6.336 0 0 0 .44-3.493 2.286 2.286 0 0 0-.358-1.022c-.381-.526-1.073-.74-1.576-1.161-.503-.42-.827-1.063-1.414-1.375-.53-.285-1.173-.252-1.772-.153a9.523 9.523 0 0 0-3.311 1.21c-.34.196-.716.438-1.107.365-.337-.06-.587-.33-.798-.59a.197.197 0 0 1 .01-.03.196.196 0 0 1-.026-.032 4.16 4.16 0 0 0-.364 1.756c0 .095 0 .197.012.281v.178a.45.45 0 0 1-.017.125.894.894 0 0 1-.22.316c-.071.082-.137.17-.195.261 0-.031.02-.063.031-.096-.149.219-.233.476-.242.74a.759.759 0 0 0 .176.531c.117.114.245.217.381.307-.046.259-.07.522-.07.785a4.544 4.544 0 0 0 2.202 3.873c.027.064.053.131.078.196.3.786.524 1.71.425 2.554 0 .06-.018.124-.028.185-.01.06-.058.065-.084.098 0 0-3.859.04-4.766-.786-.908-.825-2.292 2.018-2.292 2.018s-1.383.269-1.66 0c-.279-.27-1.896-.038-1.896-.038a3.478 3.478 0 0 0-2.412-.884 7.07 7.07 0 0 0-1.76-.982l-.043-.016a1.963 1.963 0 0 0-.87-.11s-1.897-1.571-2.45-2.42c-.554-.849-3.189-3.982-3.2-3.996v-.151l-.03-.456a1.618 1.618 0 0 1-.236.02c-.014-.046-.034-.099-.053-.16a8.808 8.808 0 0 0-.56-1.29s0-.576.167-.721c.166-.146-.069-2.258-.069-2.258s-1.71-4.013-3.24-1.017c0 0-2.895 1.939-.466 4.198 0 0 .978.472 1.107.845.09.241.418.92.64 1.375l.1.196-.028.024.035.377.016.146c-.458.26-.769.52-.693.715.135.333.228.681.276 1.037 0 0 3.36 4.228 3.794 6.033 0 0 9.01 5.38 11.974 5.762l-.524 2.682a21.497 21.497 0 0 0-.118 2.19c.04.576-.356 3.19-.356 3.19s-.514 3.842-.948 4.38c-.434.538-.356 2.843-.356 2.843a19.5 19.5 0 0 1-.587 3.265c-.434 1.46-.12 3.267-.12 3.267s-1.5 3.458 2.095 1.114c0 0 1.76-.11 3.799-.18v.196c0 .263 0 .548-.014.846-.027 1.98-.04 4.715.05 6.774.16 3.65 1.266 10.874 1.266 10.874v3.637a4.97 4.97 0 0 0-.105 1.037 6.773 6.773 0 0 0 .977 3.633l.278 2.42s.65 1.595.661 2.554a1.346 1.346 0 0 1-.027.23 1.553 1.553 0 0 0-.031.371c-.038 1.1.622 3.733.622 3.733s.039 2.65.434 2.805c.338.132-.452 1.527-.687 1.927a.55.55 0 0 1-.013-.074l-.05.078a1.89 1.89 0 0 0-.123.672.964.964 0 0 0 .439.931c.75.462 1.153.845.516.998a6.612 6.612 0 0 0-.696.148c0-.03-.024-.061-.034-.089a.42.42 0 0 0-.26.464c.006.312.086.617.233.892.632 1.422 1.07 1.965 1.07 1.965l.303-.034a1.487 1.487 0 0 1-.176.328c-.115.165-.268.3-.446.393-.166.1-.35.163-.542.187-.433.014-.84.212-1.118.546-.392.513-.642 1.21.136 1.823l2.827.982s4.862.635 4.604-.461c-.259-1.097-.415-2.055-.415-2.055a4.349 4.349 0 0 0-.391-1.943 2.527 2.527 0 0 0-.172-.287l.172-.018s.356-2.422.829-2.882c.11-.106.135-.196.11-.251.048-.132-.077-.209-.235-.254l-.035.097a2.296 2.296 0 0 0-.472-.054s-.158-1.267.356-1.728a.49.49 0 0 0 .1-.378 2.036 2.036 0 0 0-.055-.516.254.254 0 0 1-.017.031c-.259-1.151-1.135-2.98-1.135-2.98s-.039-1.151.278-1.613c.317-.462-.041-6.263-.041-6.263s.12-2.804-.237-4.11c-.356-1.306.434-2.845.434-2.845V101.725l-.045-.442a.114.114 0 0 0 0 .028c-.08-.743-.23-2.089-.342-2.71-.158-.884.041-5.107.041-5.107l.71-1.808 1.266 3.114 1.343 4.15s.665.875.68 1.767v.13c-.01.092-.015.184-.015.277-.024.524.12 1.042.409 1.48 0 0 .356 1.964.91 2.457.553.493.553 1.46.553 1.46s.67 2.844.978 3.34c.266.42.28 1.571.278 1.93v.103s.093 1.017.09 1.87v.283c0 .233-.028.465-.083.692l-.011.039c0-.05 0-.096.013-.144a7.25 7.25 0 0 0-.195 1.769c-.018 1.021.137 2.231.753 2.946 1.068 1.23 1.738 1.077 1.738 1.077s-.512 1.536-1.146 1.845a.297.297 0 0 0-.066.043c0-.031-.012-.06-.016-.09a.75.75 0 0 0-.195.573c-.045.676.38 1.768.782 2.277.15.147.333.255.534.315a2.12 2.12 0 0 1-.317.165 1.136 1.136 0 0 1-.323.084c-.433.012-.841.21-1.118.546-.392.511-.642 1.208.137 1.821l2.826.983s4.83.622 4.576-.472z"/>
        <path fill="#2D293D" fill-rule="nonzero" d="M161.357 130.355l-2.844-.882c-.784-.55-.535-1.176-.138-1.636a1.61 1.61 0 0 1 1.125-.49c.192-.021.377-.079.542-.168.18-.085.335-.206.451-.352.208-.286.32-.616.323-.954 0 0 3.12-.794 3.974 0 .152.143.28.305.377.481.284.548.423 1.144.407 1.744 0 0 .158.86.416 1.844.258.984-4.633.413-4.633.413zM176.365 129.358l-2.851-.882c-.786-.55-.536-1.176-.139-1.634a1.595 1.595 0 0 1 1.127-.49c.112-.01.222-.036.326-.076.075-.028.148-.059.22-.093.796-.38.776-1.31.776-1.31s3.126-.794 3.983 0c.115.107.216.225.3.352.536.802.476 1.873.476 1.873s.16.862.408 1.844c.248.982-4.626.416-4.626.416z"/>
        <path fill="#000" fill-rule="nonzero" d="M165.677 125.79c.13.11.239.235.323.37l-4 .36a1.18 1.18 0 0 0 .277-.73s2.67-.607 3.4 0zM179 124.484v1.038c-.552 1.42-3.224 1.108-4 .398.057-.038.113-.08.167-.128.603-.518.588-1.79.588-1.79s2.368-1.084 3.018 0c.087.147.163.308.227.482z" opacity=".1"/>
        <path fill="#464353" fill-rule="nonzero" d="M178.83 121.058a7.88 7.88 0 0 0-.532 1.17v3.077c-.766 1.285-4.736.856-5.274.155-.537-.7-1.097-2.525-.494-2.842.604-.317 1.108-1.87 1.108-1.87s-.65.155-1.682-1.092c-1.031-1.247-.724-4.011-.533-4.672.191-.662 0-2.883 0-2.883s.039-1.56-.266-2.065c-.304-.506-.955-3.386-.955-3.386s0-.974-.535-1.48-.879-2.494-.879-2.494a2.596 2.596 0 0 1-.38-1.675c.113-.974-.651-2.026-.651-2.026l-1.299-4.208-1.222-3.155-.688 1.83s-.195 4.285-.037 5.179c.158.894.39 3.272.39 3.272s-.763 1.558-.42 2.883c.344 1.324.22 4.17.22 4.17s.343 5.88.037 6.348c-.307.468-.268 1.637-.268 1.637s1.562 3.426 1.07 3.894c-.492.469-.343 1.753-.343 1.753s1.068 0 .61.468c-.456.468-.802 2.922-.802 2.922l-4.619.552s-.422-.544-1.033-1.992.113-1.285.729-1.442c.615-.157.226-.544-.5-1.012-.727-.468-.305-1.52-.305-1.52s1.107-1.908.724-2.063c-.382-.155-.42-2.844-.42-2.844s-.763-3.187-.572-4.052c.192-.864-.611-2.92-.611-2.92l-.268-2.453a6.865 6.865 0 0 1-.84-4.637V97.8s-1.07-7.322-1.222-11.022c-.098-2.37-.07-5.605-.04-7.623.02-1.131.04-1.882.04-1.882l16.5-1.753s-.016.777.298 2.5c.17.924.434 2.121.848 3.617 1.183 4.284.459 7.477.459 7.477l-.154 5.416s1.45 3.62 1.146 4.868c-.184.74-.288 1.499-.309 2.262 0 0 3.246 7.908 2.903 10.206-.344 2.299 1.068 5.922 1.068 5.922s.387 2.57.004 3.27z"/>
        <path fill="#000" fill-rule="nonzero" d="M170 100.962l4-.442s-2.266 1.917-4 .442z" opacity=".05"/>
        <path fill="#000" fill-rule="nonzero" d="M174.753 94.52s.14 2.18-.753 3c0 0 1.6-.374.753-3zM174 89.52s-4.95 3.254-6.75 2.984c-1.801-.27 6.75-2.984 6.75-2.984zM163 102.52s-2.91.944-2.998 2.614c-.088 1.67 2.998-2.614 2.998-2.614z" opacity=".1"/>
        <path fill="#000" fill-rule="nonzero" d="M165.28 119.52s-4.278 1.031-3.063 1.734c1.215.702 3.21 1.266 3.21 1.266s1.382.093-.146-3z" opacity=".05"/>
        <g fill="#000" fill-rule="nonzero" opacity=".05">
            <path d="M160.058 121.053a.893.893 0 0 1-.426-.657l-.048.08s-.434 1.04.317 1.5c.084.053.167.106.242.158.139-.026.288-.046.431-.081.635-.154.234-.537-.516-1zM166.052 120.744c.129-.114.125-.409.046-.787-.202.297-.26.762-.264 1.114a.958.958 0 0 1 .218-.327zM165.336 101.599a5.14 5.14 0 0 0-.315 1.415c.09-.334.21-.66.361-.972l-.046-.443zM175.993 99.58c.03-.138.045-.28.042-.421a10.98 10.98 0 0 0-.13.787c.027-.12.055-.234.088-.366zM165.225 115.281c.064-.094.1-.413.117-.856-.146.343-.223.71-.228 1.08.028-.078.065-.153.11-.224zM166.193 122.539a14.959 14.959 0 0 0-.543 2.361l-4.77.538s-.435-.538-1.066-1.968a3.51 3.51 0 0 1-.135-.339c-.287.128-.404.418-.025 1.262.632 1.424 1.07 1.968 1.07 1.968l4.77-.54s.354-2.424.826-2.886c.242-.223.093-.339-.127-.396zM159.9 115.628s.039 2.654.434 2.808c.202-.439.333-.856.155-.925-.403-.153-.433-2.81-.433-2.81s-.789-3.149-.591-4.003c.198-.854-.631-2.885-.631-2.885l-.277-2.424a6.535 6.535 0 0 1-.867-4.581v-3.74s-1.105-7.233-1.262-10.89c-.101-2.341-.073-5.537-.04-7.53 0-.36.011-.68.017-.949l-.135.014s-.022.74-.04 1.86c-.032 1.993-.063 5.189.04 7.529.158 3.656 1.26 10.892 1.26 10.892v3.739a6.539 6.539 0 0 0 .87 4.579l.274 2.424s.83 2.04.632 2.887c-.198.848.595 4.005.595 4.005zM173.942 124.4a4.44 4.44 0 0 1-.757-1.828c-.486.43.073 2.094.605 2.755.55.693 4.653 1.116 5.446-.155v-.732c-1.075 1.03-4.774.616-5.294-.04zM179.935 120.052a7.69 7.69 0 0 0-.552 1.155v.545c.09-.197.218-.46.403-.772a2.31 2.31 0 0 0 .174-.954l-.025.026zM174.184 120.66c.15-.297.28-.602.389-.915 0 0-.672.153-1.737-1.079-.774-.895-.819-2.588-.708-3.693-.201.655-.514 3.386.551 4.618.696.805 1.222 1.018 1.505 1.069zM172.126 112.125c.07.758.096 1.52.079 2.28.02-.12.047-.238.08-.355.202-.656 0-2.848 0-2.848s.041-1.54-.276-2.04c-.316-.5-.976-3.35-.976-3.35s0-.962-.552-1.462c-.553-.5-.908-2.464-.908-2.464a2.484 2.484 0 0 1-.403-1.655c.119-.962-.67-2.001-.67-2.001l-1.341-4.156-1.263-3.117-.711 1.81s0 .228-.025.59l.577-1.47L167 95l1.34 4.156s.79 1.039.67 2.001c-.065.58.078 1.165.404 1.655 0 0 .355 1.968.907 2.464.553.496.55 1.462.55 1.462s.673 2.847.987 3.345c.315.498.268 2.043.268 2.043z"/>
        </g>
        <path fill="#FFCDD3" fill-rule="nonzero" d="M174.929 42.56l-.3 1.565.018.698.012.513-1.668.184-.186-.37c-.346-.672-1.063-2.036-1.294-2.246-.309-.276-.859-4.632-.205-4.373.403.167.734.488.929.901 0 0 3.285.404 2.694 3.128z"/>
        <path fill="#000" fill-rule="nonzero" d="M175 44.317l-.9.203-.1-.409c.25-.623.665-.773.992-.358l.008.564z" opacity=".1"/>
        <path fill="#6C63FF" fill-rule="nonzero" d="M175 45.24l-2.783.28-.06-.18-.157-.483s1.102-.637 2.695-.16l.14.246.165.298z"/>
        <path fill="#FFCDD3" fill-rule="nonzero" d="M140 42.15l-1.773 1.37-.154-.48c-.168-.51-.42-1.276-.49-1.556-.104-.423-.843-.956-.843-.956-1.851-2.555.355-4.751.355-4.751 1.17-3.39 2.468 1.151 2.468 1.151s.182 2.395.054 2.555c-.128.16-.128.816-.128.816A12.787 12.787 0 0 1 140 42.15z"/>
        <path fill="#000" fill-rule="nonzero" d="M141 41.748l-2.76.772-.24-.27c.39-.171 1.77-.753 2.224-.73.217.015.436.018.654.01l.122.218z" opacity=".1"/>
        <path fill="#6C63FF" fill-rule="nonzero" d="M141 41.763l-2.901 1.757-.059-.765-.04-.53s1.68-1.772 2.178-1.703c.25.045.506.045.757 0l.034.641.031.6z"/>
        <path fill="#FFCDD3" fill-rule="nonzero" d="M168 50.774s-10.76 1.202-8.75.555c1.4-.453 1.957-1.325 2.073-2.309.096-.82-.118-1.703-.4-2.46a10.68 10.68 0 0 0-.955-1.924s8.221-4.477 6.579-.407a6.506 6.506 0 0 0-.467 1.928c-.05.659.023 1.32.213 1.953A5.808 5.808 0 0 0 168 50.774z"/>
        <path fill="#000" fill-rule="nonzero" d="M168.775 44.114a5.596 5.596 0 0 0-.48 1.798c-.799.602-1.674.561-2.799.561-.863 0-1.82.187-2.51-.185a9.612 9.612 0 0 0-.986-1.795s8.472-4.175 6.775-.38z" opacity=".1"/>
        <circle cx="163.5" cy="42.02" r="4.5" fill="#FFCDD3" fill-rule="nonzero"/>
        <path fill="#000" fill-rule="nonzero" d="M168 50.75s-10.76 1.24-8.75.572c1.4-.466 1.957-1.367 2.073-2.382.536-.586 1.612-1.022 2.295-1.248a3.155 3.155 0 0 1 1.95-.034c.25.078.49.19.71.336A6.018 6.018 0 0 0 168 50.75zM175 45.069l-2.937.451-.063-.29c.644-.588 1.774-.844 2.825-.642l.175.48zM141 42.775l-2.94.745-.06-.324c.953-.264 1.942-.49 2.961-.676l.039.255zM174 79.125c-4.3.722-10.414 1.644-11.384 1.333-.806-.258-3.378-.23-5.616-.15.02-1.179.04-1.961.04-1.961l16.658-1.827s-.015.81.302 2.605z" opacity=".1"/>
        <path fill="#3F3D56" fill-rule="nonzero" d="M178 78.588s-14.236 2.52-15.763 2.045c-1.528-.474-9.373.039-9.373.039-3.53 2.44-2.057-1.16-2.057-1.16s-.31-1.879.117-3.398c.287-1.115.482-2.254.585-3.403 0 0-.077-2.4.35-2.96.426-.56.932-4.558.932-4.558s.387-2.72.349-3.319c-.038-.6.115-2.28.115-2.28l.506-2.8c-2.91-.398-11.755-5.997-11.755-5.997-.426-1.879-3.723-6.277-3.723-6.277a4.743 4.743 0 0 0-.272-1.08c-.232-.64 3.26-1.92 3.26-1.92s2.598 3.272 3.141 4.16c.544.887 2.404 2.518 2.404 2.518.29-.03.581.009.853.115l.046.014a6.865 6.865 0 0 1 1.735 1.023 3.315 3.315 0 0 1 2.367.92s1.587-.242 1.862.039c.276.28 1.629 0 1.629 0s1.357-2.96 2.25-2.1c.892.858 4.679.817 4.679.817.503-.69 1.731-1.186 2.499-1.43a3.259 3.259 0 0 1 2.023-.036c.286.088.554.227.793.41l2.303 2.318s.659-.881.582-1.08c-.078-.198.775-.36.775-.36s1.125-.36 1.551-.48c.427-.12.818.356.853.399-.014-.051-.305-1.023-.198-1.759.107-.736-.466-1.431-.466-1.431 1.357-3.44 4.421-.56 4.421-.56s.35 1.879.04 2.599c-.31.72.31 2.239.232 2.64-.077.4.157 1.08.157 1.84s-.397 2.198-.621 2.838c-.224.64-2.095 2.08-2.095 2.08s-.117 2.28-.932 3.598c-.815 1.32-.304 5.83-.304 5.83s.776 3.52 1.746 4.64c.97 1.12 2.404 7.506 2.404 7.506z"/>
        <path fill="#000" fill-rule="nonzero" d="M156.847 52.52s-.626-1.62-1.196-1.757a14.3 14.3 0 0 1-1.651-.638l.367-.605s2.137.502 2.48 1.047c.344.545 0 1.953 0 1.953zM148 49.1c-.088.226-4 .42-4 .42l1.978-1 .049.01c.71.14 1.374.332 1.973.57z" opacity=".1"/>
        <circle cx="139.5" cy="44.02" r="1" fill="#575988" fill-rule="nonzero"/>
        <circle cx="139.5" cy="45.02" r="1" fill="#575988" fill-rule="nonzero"/>
        <circle cx="139.5" cy="45.02" r="1" fill="#575988" fill-rule="nonzero"/>
        <circle cx="139.5" cy="45.02" r="1" fill="#575988" fill-rule="nonzero"/>
        <circle cx="177.5" cy="45.02" r="1" fill="#575988" fill-rule="nonzero"/>
        <circle cx="177.5" cy="45.02" r="1" fill="#575988" fill-rule="nonzero"/>
        <circle cx="177.5" cy="47.02" r="1" fill="#575988" fill-rule="nonzero"/>
        <path fill="#000" fill-rule="nonzero" d="M158 63.52c-.036-.048 8.43 11.66 15 4.894.006.002-10.376 1.544-15-4.894zM151 68.52s6.337.128 7 1.48v1.407c-.367.15-.813.15-1.18 0-.638-.257-4.47-1.7-5.82-1.005V68.52z" opacity=".1"/>
        <path fill="#3F3D56" fill-rule="nonzero" d="M153 68.52s4.526.129 5 1.481v1.405a.838.838 0 0 1-.843 0c-.456-.254-3.192-1.698-4.157-1.003V68.52z"/>
        <path fill="#000" fill-rule="nonzero" d="M155 56.52a18.564 18.564 0 0 0 1.95 3.72c.85 1.27 1.88 2.378 3.05 3.28 0 0-4.916-6.233-5-7zM152 52.52s.839 2.986 3 4l-3-4zM151.078 52.521c-.021-.06-.78 2.55 2.922 3.999 0 0-1.573-.454-2.922-3.999zM174.002 48.521c-.075 0 2.34.681 2.998.999 0 0-1.572-1.044-2.998-.999z" opacity=".1"/>
        <path fill="#2D293D" fill-rule="nonzero" d="M162.12 46.687a.78.78 0 0 0 .852.772c1.51.093 3.084.16 4.472-.426.26-.092.494-.247.681-.45.247-.304.296-.717.396-1.095.196-.74.614-1.397.914-2.1a7.028 7.028 0 0 0 .492-3.775 2.549 2.549 0 0 0-.38-1.103c-.4-.572-1.13-.804-1.66-1.259-.53-.455-.871-1.15-1.49-1.488-.559-.31-1.242-.272-1.87-.166a9.823 9.823 0 0 0-3.488 1.308c-.36.212-.754.474-1.167.395-.362-.068-.626-.372-.851-.657-.29.68-.413 1.42-.356 2.158a.926.926 0 0 1-.01.325.978.978 0 0 1-.233.343c-.372.425-.604 1.116-.236 1.554.16.19.407.293.562.487.279.346.185.85.179 1.292a.665.665 0 0 0 .11.438.64.64 0 0 0 .612.147c.21-.063.432-.084.651-.062.231.075.43.225.567.426.687.895.96 1.869 1.254 2.936z"/>
        <g fill="#000" fill-rule="nonzero" opacity=".1">
            <path d="M167.963 46.359a1.479 1.479 0 0 1-.587.367c-1.205.472-2.56.418-3.858.346a.95.95 0 0 1-.402-.085c-.198-.11-.274-.338-.334-.545-.254-.866-.487-1.66-1.09-2.382a.939.939 0 0 0-.488-.355c-.189-.016-.38 0-.562.05a.576.576 0 0 1-.527-.117.518.518 0 0 1-.096-.357c0-.363.087-.77-.154-1.052-.134-.157-.347-.242-.485-.398a.752.752 0 0 1-.082-.807c-.23.347-.327.781-.061 1.079.138.154.35.239.485.396.24.284.16.692.154 1.052a.514.514 0 0 0 .094.357c.142.125.342.17.529.12.182-.052.373-.07.562-.05.199.06.37.182.488.345.601.722.836 1.515 1.09 2.384.03.213.143.409.317.548a.937.937 0 0 0 .404.083c1.303.076 2.66.132 3.858-.346.224-.075.426-.2.587-.367.081-.097.143-.207.184-.325.002.022-.011.041-.026.059zM159.65 40.49a.586.586 0 0 0 .13-.205.712.712 0 0 0 0-.264 3.553 3.553 0 0 1 .2-1.458l-.023-.026a3.53 3.53 0 0 0-.307 1.755 1.18 1.18 0 0 1 0 .198z"/>
        </g>
        <path fill="#000" fill-rule="nonzero" d="M162 48.765s6.423 1.852 7-.245M174 46.52s3.28 0 4 1" opacity=".1"/>
        <path fill="#3F3D56" fill-rule="nonzero" d="M191.064 151.609c-.911.946-2.096 1.46-3.318 1.44-.312 0-.744.068-.746.43a.672.672 0 0 0 .091.296c.386.747.996 1.302 1.712 1.56.666.235 1.377.195 2.071.153l2.025-.121c.38-.025.761-.047 1.142-.102.38-.055.795-.146 1.192-.22a13.46 13.46 0 0 1 2.95-.16c.262.011.57 0 .726-.22.156-.221.076-.643.017-.974-.121-.682 0-1.398-.112-2.082-.19-1.201-1.086-2.122-2.067-2.557-.913-.401-2.53-.863-3.393-.192-.911.705-1.468 1.881-2.29 2.749z"/>
        <path fill="#464353" fill-rule="nonzero" d="M192.323 116.946c.19.89 1.065 1.573 1.09 2.482.022.73-.506 1.341-.886 1.965a13.02 13.02 0 0 0-.904 2.017 30.65 30.65 0 0 1-2.652 5.203c-.505.798-1.071 1.649-.956 2.576.08.433.236.85.459 1.232l1.516 2.97c.332.593.592 1.222.774 1.876.132.564.144 1.148.22 1.722.24 1.822 1.106 3.656.593 5.422-.044.151-.202.335-.325.23.5.922.903 1.851.865 2.898-.02.548-.19 1.12.014 1.63.087.213.238.413.236.642 0 .152-.07.293-.087.44-.042.421.35.772.757.906.406.133.849.123 1.259.245.788.233 1.352.903 2.021 1.367a4.345 4.345 0 0 0 2.33.748.593.593 0 0 0 .343-.068.545.545 0 0 0 .19-.41 2.265 2.265 0 0 0-.833-1.982.903.903 0 0 1-.31-.32.76.76 0 0 1-.028-.356 26.495 26.495 0 0 0-.088-4.904 7.345 7.345 0 0 1-.08-1.56c.043-.435.177-.866.128-1.298-.048-.433-.273-.827-.404-1.244-.235-.742-.17-1.539-.202-2.314-.04-1.348-.354-2.672-.666-3.987-.123-.516-.258-1.057-.628-1.44-.316-.324-.825-.635-.706-1.068.066-.16.165-.304.29-.424.295-.367.425-.837.36-1.3a.595.595 0 0 0 .68-.315c2.463-1.146 4.448-3.439 5.333-5.98a1.96 1.96 0 0 1 .239-.535c.228-.315.624-.45.976-.623 1.104-.549 1.866-1.575 2.565-2.58.405-.582.809-1.184.991-1.87.096-.443.141-.896.135-1.35l.063-2.342a1.249 1.249 0 0 0-.044-.458 1.146 1.146 0 0 0-.257-.37 4.586 4.586 0 0 0-2.519-1.34c-.647-.114-1.308-.092-1.963-.146-1.27-.104-2.523-.492-3.792-.399-1.995.146-3.772 1.51-4.712 3.252-.33.614-.678 1.148-1.385 1.16z"/>
        <path fill="#6C63FF" fill-rule="nonzero" d="M181.24 102.626c.026.357-.024.716-.149 1.053-.158.323-.554.574-.901.443.105-.227-.172-.484-.431-.457a.798.798 0 0 0-.569.468c-.171.33-.229.705-.164 1.069.082.452.355.887.283 1.342-.057.378-.347.754-.193 1.104.1.16.225.304.372.427a1.169 1.169 0 0 1-.134 1.653l3.885.075c-.142.621.15 1.257.482 1.81 1.889 3.082 5.174 5.138 8.878 5.555a.74.74 0 0 0-.374.523.72.72 0 0 0 .187.608c.316.301.852.264 1.248.07.396-.196.706-.518 1.067-.768a3.391 3.391 0 0 1 2.195-.567c.487.045.959.197 1.448.22 1.437.073 2.669-.918 4.052-1.324 1.008-.297 2.152-.297 2.998-.901.365-.26.665-.687.558-1.108a1.839 1.839 0 0 0-.41-.651c-.487-.604-.774-1.33-1.123-2.017a12.12 12.12 0 0 0-2.807-3.605 25.04 25.04 0 0 0-2.784-2.023 4.791 4.791 0 0 0-.751-.435c-.341-.144-.719-.212-1.027-.393-.456-.276-.718-.762-1.07-1.154-.77-.861-1.952-1.257-2.9-1.934-.637-.454-1.2-1.053-1.959-1.271-.37-.108-.762-.116-1.131-.222-.84-.244-1.452-.959-2.275-1.248-.65-.228-1.37-.17-2.053-.25a4.933 4.933 0 0 1-2.145-.783 2.574 2.574 0 0 0-.684-.382c-1.041-.303-1.125 1.555-1.232 2.198-.137.956-.388 1.907-.388 2.875z"/>
        <path fill="#FBBEBE" fill-rule="nonzero" d="M183.176 108.699c.172 1.902-1.236 3.744-.826 5.606.087.396.255.774.316 1.176.172 1.103-.475 2.15-1.092 3.073l-5.3 7.931a4.97 4.97 0 0 1-.756.953c-1.012.918-2.533.825-3.864 1.097a6.612 6.612 0 0 0-2.589 1.168.173.173 0 0 0-.032.237c.446.62 1.17.967 1.923.922.14.186 0 .462-.192.596-.283.206-.675.254-.732.747a.839.839 0 0 0 .097.495c.214.332.546.567.927.656 1.834.573 3.816-.433 5.19-1.8 1.373-1.368 2.358-3.095 3.705-4.485.747-.772 1.594-1.43 2.363-2.176 1.533-1.492 2.727-3.3 3.875-5.114.346-.546.696-1.107.84-1.74.144-.634.077-1.275.24-1.888.215-.802.792-1.444 1.27-2.116.941-1.32 1.57-2.935 1.445-4.563-.125-1.627-1.112-3.232-2.617-3.784a2.31 2.31 0 0 0-1.467-.091c-.617.194-1.072.713-1.493 1.213l-1.01 1.184a2.77 2.77 0 0 0-.57.91.965.965 0 0 0 .203 1.01"/>
        <path fill="#6C63FF" fill-rule="nonzero" d="M185.348 100.586c-.68.04-1.429.106-1.909.59a2.705 2.705 0 0 0-.482.752c-.467.947-.921 1.937-.955 2.992-.028.843.218 1.667.346 2.5.107.693-.164 1.4-.215 2.1.844-.258 1.958-.608 2.723-1.043.522-.297 1.026-.636 1.595-.825.813-.27 2.174.197 2.947.57.042-.538-.366-1.48-.322-2.02a2.25 2.25 0 0 1 .12-.67c.116-.228.253-.445.41-.647a2.64 2.64 0 0 0-.24-3.104c-.685-.768-1.759-1.055-2.782-1.181a12.086 12.086 0 0 0-1.943-.067"/>
    </g>
</svg>
